<svg width="989" height="299" viewBox="0 0 989 299" fill="none" xmlns="http://www.w3.org/2000/svg">
<path d="M1.64879 -7.20714e-08L29.6225 -1.29484e-06C29.7478 -1.30032e-06 29.8748 0.0122973 30.0015 0.0615221C30.1003 0.0245959 30.227 0.0122973 30.3397 0.0122973C31.0726 0.0122972 31.68 0.522093 31.68 1.16369C31.68 7.768 37.5692 13.1224 44.8128 13.1224C52.0576 13.1224 57.9612 7.768 57.9612 1.16369C57.9612 0.522092 58.553 0.012296 59.3012 0.012296L80.9037 0.012295C81.6378 0.012295 82.2426 0.522091 82.2426 1.16369C82.2426 7.768 88.1332 13.1224 95.3781 13.1224C102.62 13.1224 108.526 7.768 108.526 1.16369C108.526 0.52209 109.118 0.0122938 109.864 0.0122938L134.696 0.0122927C135.442 0.0122927 136.048 0.522089 136.048 1.16369C136.048 7.768 141.954 13.1224 149.21 13.1224C156.455 13.1224 162.344 7.768 162.344 1.16369C162.344 0.522088 162.95 0.0122915 163.683 0.0122914L188.528 0.0122903C189.261 0.0122903 189.868 0.522086 189.868 1.16369C189.868 7.768 195.773 13.1224 203.029 13.1224C210.274 13.1224 216.166 7.768 216.166 1.16369C216.166 0.522085 216.769 0.0122891 217.517 0.0122891L242.35 0.012288C243.096 0.012288 243.687 0.522084 243.687 1.16369C243.687 7.76799 249.591 13.1224 256.836 13.1224C264.094 13.1224 269.984 7.76799 269.984 1.16368C269.984 0.522083 270.591 0.0122868 271.335 0.0122867L298.21 0.0121635C298.961 0.0121634 299.564 0.521929 299.564 1.16356L299.564 297.837C299.564 298.48 298.961 299 298.21 299L271.335 299C270.591 299 269.984 298.48 269.984 297.837C269.984 291.245 264.094 285.877 256.836 285.877C249.591 285.877 243.687 291.245 243.687 297.837C243.687 298.48 243.096 299 242.35 299L217.517 299C216.769 299 216.166 298.48 216.166 297.837C216.166 291.245 210.274 285.877 203.03 285.877C195.773 285.877 189.868 291.245 189.868 297.837C189.868 298.48 189.261 299 188.528 299L163.683 299C162.95 299 162.344 298.48 162.344 297.837C162.344 291.245 156.455 285.877 149.21 285.877C141.954 285.877 136.048 291.245 136.048 297.837C136.048 298.48 135.442 299 134.696 299L113.19 299C112.457 299 111.851 298.48 111.851 297.837C111.851 291.245 105.962 285.877 98.7167 285.877C91.4731 285.877 85.5698 291.245 85.5698 297.837C85.5698 298.48 84.9765 299 84.2309 299L59.3013 299C58.553 299 57.9612 298.48 57.9612 297.837C57.9612 291.245 52.0576 285.877 44.8128 285.877C37.5692 285.877 31.68 291.245 31.68 297.837C31.68 298.48 31.0726 299 30.3397 299C30.2144 299 30.0874 298.989 29.9607 298.941C29.848 298.977 29.7352 298.989 29.6225 298.989L1.6488 298.989C0.91458 298.989 0.310037 298.468 0.310037 297.837L0.310036 269.167C0.310036 268.827 0.47914 268.5 0.789177 268.283C1.0978 268.065 1.4938 267.968 1.88839 268.029C2.3943 268.112 2.93122 268.149 3.53719 268.149C10.7793 268.149 16.6714 262.782 16.6714 256.177C16.6714 249.598 10.7793 244.242 3.53719 244.242C2.93122 244.242 2.3943 244.277 1.88839 244.351C1.4938 244.412 1.0978 244.326 0.789176 244.109C0.479139 243.877 0.310034 243.562 0.310034 243.211L0.310033 216.893C0.310033 216.552 0.479138 216.226 0.789175 216.007C1.0978 215.789 1.4938 215.692 1.88839 215.754C2.3943 215.837 2.93121 215.875 3.53719 215.875C10.7793 215.875 16.6714 210.507 16.6714 203.915L16.6714 202.618C16.6714 196.026 10.7793 190.67 3.53719 190.67C2.9453 190.67 2.3943 190.706 1.88839 190.778C1.43743 190.851 0.999126 190.719 0.718684 190.464C0.294499 190.281 -4.76915e-06 189.895 -4.78821e-06 189.458L-5.93917e-06 163.128C-5.95407e-06 162.787 0.181753 162.46 0.493198 162.242C0.789142 162.024 1.19785 161.927 1.59104 161.999C2.08568 162.071 2.61979 162.108 3.22577 162.108C10.4707 162.108 16.36 156.741 16.36 150.148C16.36 143.557 10.4707 138.201 3.22576 138.201C2.61979 138.201 2.08568 138.236 1.59103 138.321C1.19785 138.382 0.789169 138.286 0.479134 138.066C0.181781 137.85 -7.05847e-06 137.521 -7.07323e-06 137.183L-7.07384e-06 137.169L0.310029 110.051C0.310029 109.713 0.493231 109.386 0.801857 109.179C1.0978 108.961 1.50648 108.864 1.88838 108.926C2.3943 109.01 2.93121 109.045 3.53718 109.045C10.7793 109.045 16.6714 103.679 16.6714 97.0725C16.6714 90.4946 10.7793 85.1384 3.53718 85.1384C2.93121 85.1384 2.3943 85.1753 1.88838 85.2474C1.49379 85.3071 1.0978 85.2228 0.789169 85.0048C0.479132 84.7745 0.310028 84.4581 0.310028 84.1065L0.310026 54.4076C0.310026 54.0701 0.47913 53.7414 0.789167 53.5234C1.09779 53.3054 1.49379 53.207 1.88838 53.2703C2.39429 53.3423 2.93121 53.3916 3.53718 53.3916C10.7793 53.3916 16.6714 48.023 16.6714 41.4416C16.6714 34.8514 10.7793 29.4934 3.53718 29.4934C2.93121 29.4934 2.39429 29.5321 1.88838 29.6147C1.49379 29.6762 1.09779 29.5795 0.789166 29.3598C0.479129 29.1436 0.310025 28.8149 0.310025 28.4756L0.310024 1.1637C0.310024 0.522095 0.914567 -3.99776e-08 1.64879 -7.20714e-08Z" fill="url(#paint0_linear_115_84)"/>
<path d="M125.685 46.7973V37.375H135.266V46.7973H125.685ZM113.548 46.7973V37.375H123.129V46.7973H113.548ZM174.231 46.7973V37.375H183.813V46.7973H174.231ZM137.821 46.7973V37.375H147.403V46.7973H137.821ZM162.095 46.7973V37.375H171.676V46.7973H162.095ZM149.958 46.7973V37.375H159.54V46.7973H149.958ZM113.548 58.7321V49.3099H123.129V58.7321H113.548ZM89.2743 58.7321V49.3099H98.856V58.7321H89.2743ZM198.505 58.7321V49.3099H208.087V58.7321H198.505ZM162.095 58.7321V49.3099H171.676V58.7321H162.095ZM149.958 58.7321V49.3099H159.54V58.7321H149.958ZM101.411 58.7321V49.3099H110.993V58.7321H101.411ZM186.368 58.7321V49.3099H195.95V58.7321H186.368ZM210.642 58.7321V49.3099H220.223V58.7321H210.642ZM137.821 58.7321V49.3099H147.403V58.7321H137.821ZM174.231 58.7321V49.3099H183.813V58.7321H174.231ZM125.685 58.7321V49.3099H135.266V58.7321H125.685ZM222.778 70.667V61.2448H232.36V70.667H222.778ZM210.642 70.667V61.2448H220.223V70.667H210.642ZM198.505 70.667V61.2448H208.087V70.667H198.505ZM89.2743 70.667V61.2448H98.856V70.667H89.2743ZM101.411 70.667V61.2448H110.993V70.667H101.411ZM77.1376 70.667V61.2448H86.7192V70.667H77.1376ZM210.642 82.6019V73.1796H220.223V82.6019H210.642ZM222.778 82.6019V73.1796H232.36V82.6019H222.778ZM77.1376 82.6019V73.1796H86.7192V82.6019H77.1376ZM89.2743 82.6019V73.1796H98.856V82.6019H89.2743ZM65.0009 94.5368V85.1145H74.5825V94.5368H65.0009ZM234.915 94.5368V85.1145H244.497V94.5368H234.915ZM222.778 94.5368V85.1145H232.36V94.5368H222.778ZM77.1376 94.5368V85.1145H86.7192V94.5368H77.1376ZM234.915 106.472V97.0494H244.497V106.472H234.915ZM77.1376 106.472V97.0494H86.7192V106.472H77.1376ZM65.0009 106.472V97.0494H74.5825V106.472H65.0009ZM222.778 106.472V97.0494H232.36V106.472H222.778ZM52.8641 118.407V108.984H62.4458V118.407H52.8641ZM234.915 118.407V108.984H244.497V118.407H234.915ZM222.778 118.407V108.984H232.36V118.407H222.778ZM65.0009 118.407V108.984H74.5825V118.407H65.0009ZM52.8641 130.341V120.919H62.4458V130.341H52.8641ZM65.0009 130.341V120.919H74.5825V130.341H65.0009ZM65.0009 142.276V132.854H74.5825V142.276H65.0009ZM52.8641 142.276V132.854H62.4458V142.276H52.8641ZM52.8641 154.211V144.789H62.4458V154.211H52.8641ZM65.0009 154.211V144.789H74.5825V154.211H65.0009ZM65.0009 166.146V156.724H74.5825V166.146H65.0009ZM52.8641 166.146V156.724H62.4458V166.146H52.8641ZM65.0009 178.081V168.659H74.5825V178.081H65.0009ZM52.8641 178.081V168.659H62.4458V178.081H52.8641ZM234.915 190.016V180.593H244.497V190.016H234.915ZM222.778 190.016V180.593H232.36V190.016H222.778ZM52.8641 190.016V180.593H62.4458V190.016H52.8641ZM65.0009 190.016V180.593H74.5825V190.016H65.0009ZM77.1376 201.951V192.528H86.7192V201.951H77.1376ZM222.778 201.951V192.528H232.36V201.951H222.778ZM65.0009 201.951V192.528H74.5825V201.951H65.0009ZM234.915 201.951V192.528H244.497V201.951H234.915ZM222.778 213.886V204.463H232.36V213.886H222.778ZM65.0009 213.886V204.463H74.5825V213.886H65.0009ZM77.1376 213.886V204.463H86.7192V213.886H77.1376ZM234.915 213.886V204.463H244.497V213.886H234.915ZM222.778 225.82V216.398H232.36V225.82H222.778ZM77.1376 225.82V216.398H86.7192V225.82H77.1376ZM89.2743 225.82V216.398H98.856V225.82H89.2743ZM210.642 225.82V216.398H220.223V225.82H210.642ZM89.2743 237.755V228.333H98.856V237.755H89.2743ZM77.1376 237.755V228.333H86.7192V237.755H77.1376ZM101.411 237.755V228.333H110.993V237.755H101.411ZM222.778 237.755V228.333H232.36V237.755H222.778ZM210.642 237.755V228.333H220.223V237.755H210.642ZM198.505 237.755V228.333H208.087V237.755H198.505ZM125.685 249.69V240.268H135.266V249.69H125.685ZM89.2743 249.69V240.268H98.856V249.69H89.2743ZM101.411 249.69V240.268H110.993V249.69H101.411ZM174.231 249.69V240.268H183.813V249.69H174.231ZM113.548 249.69V240.268H123.129V249.69H113.548ZM186.368 249.69V240.268H195.95V249.69H186.368ZM137.821 249.69V240.268H147.403V249.69H137.821ZM210.642 249.69V240.268H220.223V249.69H210.642ZM198.505 249.69V240.268H208.087V249.69H198.505ZM149.958 249.69V240.268H159.54V249.69H149.958ZM162.095 249.69V240.268H171.676V249.69H162.095ZM125.685 261.625V252.203H135.266V261.625H125.685ZM113.548 261.625V252.203H123.129V261.625H113.548ZM137.821 261.625V252.203H147.403V261.625H137.821ZM174.231 261.625V252.203H183.813V261.625H174.231ZM149.958 261.625V252.203H159.54V261.625H149.958ZM162.095 261.625V252.203H171.676V261.625H162.095Z" fill="white"/>
<path d="M357.235 266.877C349.602 266.877 342.951 265.241 337.281 261.97C331.611 258.699 327.14 254.065 323.869 248.068C320.707 241.962 319.605 233.263 319.387 225.085L332.538 225.334C332.865 234.711 335.045 241.69 339.08 246.269C343.114 250.849 349.166 253.138 357.235 253.138C365.304 253.138 371.355 250.849 375.39 246.269C379.533 241.581 381.605 234.602 381.605 225.334V148.137H395.671V225.334C395.671 238.2 392.236 248.341 385.367 255.755C378.497 263.17 369.12 266.877 357.235 266.877Z" fill="white"/>
<path d="M459.394 266.223C451.434 266.223 444.456 264.369 438.459 260.662C432.571 256.955 427.991 251.721 424.72 244.961C421.449 238.091 419.813 230.077 419.813 220.918C419.813 211.65 421.449 203.636 424.72 196.876C427.991 190.116 432.571 184.882 438.459 181.175C444.456 177.467 451.434 175.614 459.394 175.614C467.354 175.614 474.278 177.467 480.166 181.175C486.163 184.882 490.797 190.116 494.068 196.876C497.339 203.636 498.975 211.65 498.975 220.918C498.975 230.077 497.339 238.091 494.068 244.961C490.797 251.721 486.163 256.955 480.166 260.662C474.278 264.369 467.354 266.223 459.394 266.223ZM459.394 253.138C467.354 253.138 473.515 250.303 477.876 244.634C482.347 238.855 484.582 230.95 484.582 220.918C484.582 210.887 482.347 203.036 477.876 197.366C473.515 191.588 467.354 188.698 459.394 188.698C451.434 188.698 445.219 191.588 440.749 197.366C436.387 203.036 434.206 210.887 434.206 220.918C434.206 230.95 436.387 238.855 440.749 244.634C445.219 250.303 451.434 253.138 459.394 253.138Z" fill="white"/>
<path d="M551.413 266.223C542.799 266.223 535.929 263.333 530.805 257.554C525.68 251.666 523.118 243.598 523.118 233.348V177.576H536.856V229.587C536.856 237.982 538.328 244.197 541.272 248.232C544.325 252.157 548.96 254.12 555.175 254.12C561.935 254.12 567.278 251.939 571.203 247.578C575.129 243.107 577.091 237.001 577.091 229.26V177.576H590.83V264.26H577.746V242.835L579.872 243.979C578.127 251.067 574.802 256.573 569.895 260.498C564.988 264.315 558.827 266.223 551.413 266.223Z" fill="white"/>
<path d="M643.759 264.26V177.576H655.208L656.516 199.493L655.208 199.166C656.298 191.751 658.643 186.299 662.241 182.81C665.948 179.321 670.855 177.576 676.961 177.576H694.789V190.007H677.125C672.872 190.007 669.274 190.879 666.33 192.623C663.495 194.259 661.314 196.712 659.787 199.983C658.261 203.145 657.498 207.125 657.498 211.923V264.26H643.759ZM621.188 264.26V252.157H684.975V264.26H621.188ZM621.188 189.679V177.576H651.282V189.679H621.188Z" fill="white"/>
<path d="M718.277 264.26V177.576H730.871L731.362 199.656L729.726 198.184C730.816 193.06 732.779 188.862 735.614 185.591C738.558 182.21 742.047 179.703 746.082 178.067C750.116 176.432 754.369 175.614 758.839 175.614C765.491 175.614 770.997 177.086 775.358 180.03C779.829 182.974 783.209 186.954 785.499 191.969C787.789 196.876 788.934 202.382 788.934 208.488V264.26H775.195V212.413C775.195 204.345 773.614 198.239 770.452 194.095C767.29 189.843 762.437 187.717 755.895 187.717C751.425 187.717 747.39 188.698 743.792 190.661C740.194 192.514 737.304 195.295 735.123 199.002C733.052 202.6 732.016 207.071 732.016 212.413V264.26H718.277Z" fill="white"/>
<path d="M840.227 266.223C834.775 266.223 829.868 265.241 825.507 263.279C821.145 261.316 817.71 258.59 815.203 255.101C812.695 251.503 811.441 247.36 811.441 242.671C811.441 235.257 813.622 229.532 817.983 225.498C822.454 221.354 829.432 218.356 838.918 216.502L868.032 210.614C868.032 203.2 866.341 197.694 862.961 194.095C859.69 190.497 854.947 188.698 848.732 188.698C842.735 188.698 838.046 190.061 834.666 192.787C831.286 195.404 828.941 199.22 827.633 204.236L813.076 203.091C814.712 194.913 818.583 188.316 824.689 183.301C830.904 178.176 838.918 175.614 848.732 175.614C859.199 175.614 867.323 178.776 873.102 185.1C878.881 191.315 881.77 199.929 881.77 210.941V246.923C881.77 248.886 882.206 250.249 883.079 251.012C883.951 251.775 885.26 252.157 887.004 252.157H892.565V264.26C891.911 264.369 890.875 264.424 889.458 264.424C888.04 264.533 886.677 264.587 885.369 264.587C881.661 264.587 878.499 263.988 875.882 262.788C873.374 261.589 871.466 259.681 870.158 257.064C868.849 254.338 868.141 250.849 868.032 246.596H870.648C869.885 250.303 868.032 253.684 865.087 256.737C862.252 259.681 858.654 262.025 854.293 263.769C849.931 265.405 845.243 266.223 840.227 266.223ZM841.535 254.12C847.423 254.12 852.33 253.138 856.255 251.176C860.181 249.104 863.125 246.269 865.087 242.671C867.05 238.964 868.032 234.711 868.032 229.914V222.39L841.535 227.624C835.647 228.714 831.558 230.404 829.268 232.694C826.979 234.875 825.834 237.764 825.834 241.363C825.834 245.397 827.197 248.559 829.923 250.849C832.758 253.029 836.629 254.12 841.535 254.12Z" fill="white"/>
<path d="M945.33 264.26V171.361C945.33 167.872 944.349 165.146 942.386 163.184C940.423 161.221 937.697 160.24 934.208 160.24H913.764V148.137H934.862C942.822 148.137 948.819 150.208 952.854 154.352C956.997 158.386 959.069 164.383 959.069 172.343V264.26H945.33ZM910.492 264.26V252.157H989V264.26H910.492Z" fill="white"/>
<g filter="url(#filter0_d_115_84)">
<path d="M393.977 125.443L403.721 124.337C403.764 124.332 403.809 124.332 403.855 124.346C403.888 124.328 403.932 124.318 403.971 124.313C404.226 124.284 404.461 124.467 404.491 124.726C404.795 127.402 407.092 129.337 409.615 129.051C412.138 128.764 413.948 126.362 413.644 123.687C413.615 123.427 413.798 123.197 414.058 123.167L421.582 122.312C421.838 122.283 422.072 122.466 422.102 122.726C422.405 125.401 424.704 127.337 427.227 127.05C429.749 126.764 431.56 124.361 431.256 121.686C431.227 121.426 431.409 121.196 431.669 121.167L440.318 120.184C440.578 120.155 440.812 120.337 440.842 120.597C441.146 123.272 443.449 125.207 445.977 124.92C448.5 124.633 450.305 122.232 450.001 119.556C449.971 119.297 450.159 119.066 450.414 119.037L459.068 118.054C459.323 118.025 459.558 118.208 459.588 118.467C459.891 121.143 462.194 123.078 464.722 122.791C467.245 122.504 469.051 120.102 468.747 117.427C468.717 117.167 468.904 116.937 469.164 116.907L477.814 115.924C478.074 115.895 478.303 116.078 478.332 116.338C478.636 119.013 480.939 120.948 483.463 120.662C485.99 120.374 487.795 117.973 487.491 115.297C487.462 115.038 487.65 114.807 487.909 114.778L658.905 95.3522C659.167 95.3225 659.4 95.5051 659.43 95.765C659.43 95.7652 659.43 95.7653 659.43 95.7655C659.734 98.4403 662.032 100.376 664.556 100.089C667.078 99.8026 668.884 97.4007 668.58 94.7256C668.55 94.4657 668.738 94.2352 668.998 94.2056C669.013 94.2039 669.032 94.2018 669.047 94.2051C669.061 94.1984 669.076 94.1968 669.091 94.1951L677.744 93.2121C678 93.183 678.234 93.3656 678.264 93.6255C678.567 96.3006 680.866 98.2363 683.389 97.9497C685.916 97.6626 687.727 95.26 687.423 92.5849C687.394 92.325 687.581 92.0946 687.836 92.0656L696.49 91.0826C696.75 91.0529 696.979 91.2361 697.009 91.496C697.313 94.1711 699.611 96.1069 702.134 95.8202C704.622 95.5376 706.411 93.2075 706.173 90.5848C706.153 90.5466 706.143 90.503 706.138 90.4589C706.111 90.2232 706.261 90.0121 706.484 89.9572C706.508 89.9444 706.532 89.9417 706.557 89.9389L715.205 88.9564C715.466 88.9268 715.7 89.1094 715.73 89.3693C716.033 92.0444 718.332 93.9801 720.86 93.693C723.382 93.4064 725.193 91.0039 724.889 88.3288C724.859 88.0689 725.042 87.8389 725.302 87.8094L733.951 86.8269C734.211 86.7973 734.445 86.9799 734.475 87.2398C734.779 89.9149 737.082 91.8501 739.609 91.563C742.132 91.2764 743.938 88.8744 743.634 86.1993C743.605 85.9394 743.792 85.7089 744.047 85.68L752.701 84.6968C752.956 84.6679 753.19 84.8504 753.22 85.1103C753.524 87.7855 755.821 89.7213 758.345 89.4346C760.873 89.1474 762.683 86.745 762.379 84.0698C762.349 83.8099 762.537 83.5795 762.797 83.5499L772.839 82.4091C773.1 82.3795 773.334 82.5621 773.364 82.822L774.683 94.4353C774.698 94.572 774.65 94.7116 774.557 94.8123C774.459 94.9128 774.322 94.9682 774.181 94.9597C774.006 94.9442 773.817 94.9512 773.606 94.9752C771.083 95.2618 769.278 97.6695 769.582 100.344C769.885 103.01 772.183 104.945 774.706 104.659C774.917 104.635 775.102 104.599 775.27 104.55C775.405 104.51 775.552 104.528 775.669 104.604C775.783 104.681 775.861 104.806 775.877 104.948L777.088 115.61C777.104 115.747 777.056 115.887 776.962 115.986C776.865 116.087 776.727 116.143 776.591 116.133C776.406 116.119 776.217 116.126 776.011 116.15C773.489 116.436 771.683 118.843 771.987 121.514C772.29 124.184 774.589 126.12 777.111 125.833C777.317 125.81 777.503 125.775 777.68 125.724C777.811 125.684 777.957 125.703 778.075 125.778C778.188 125.855 778.266 125.981 778.282 126.118L779.943 139.56C779.959 139.702 779.91 139.842 779.817 139.942C779.719 140.042 779.58 140.094 779.44 140.085C779.266 140.074 779.078 140.081 778.866 140.105C776.343 140.392 774.539 142.799 774.842 145.469L774.962 147.489C775.265 150.154 777.564 152.096 780.086 151.809C780.298 151.785 780.482 151.744 780.655 151.694C780.79 151.654 780.931 151.673 781.05 151.754C781.167 151.831 781.242 151.956 781.257 152.094L782.558 163.545C782.574 163.682 782.53 163.821 782.432 163.922C782.334 164.023 782.201 164.077 782.061 164.069C781.881 164.059 781.692 164.06 781.48 164.084C778.958 164.371 777.153 166.779 777.456 169.444C777.759 172.114 780.058 174.05 782.58 173.763C782.792 173.739 782.976 173.704 783.149 173.65C783.284 173.609 783.426 173.633 783.544 173.709C783.661 173.785 783.736 173.911 783.751 174.048L784.942 184.532C784.972 184.793 784.789 185.027 784.53 185.056L774.482 186.198C774.222 186.227 773.991 186.04 773.962 185.78C773.658 183.109 771.356 181.169 768.827 181.456C766.305 181.742 764.5 184.15 764.803 186.82C764.833 187.081 764.645 187.315 764.385 187.345L755.737 188.327C755.477 188.357 755.241 188.17 755.212 187.91C754.909 185.239 752.609 183.298 750.087 183.585C747.559 183.872 745.749 186.28 746.053 188.95C746.082 189.211 745.9 189.445 745.641 189.474L736.987 190.457C736.731 190.486 736.497 190.3 736.467 190.039C736.164 187.369 733.865 185.428 731.342 185.714C728.814 186.001 727.004 188.409 727.307 191.08C727.337 191.34 727.151 191.575 726.894 191.604L718.241 192.587C717.982 192.616 717.751 192.429 717.722 192.169C717.418 189.498 715.12 187.557 712.592 187.844C710.069 188.131 708.264 190.538 708.568 193.208C708.597 193.469 708.415 193.703 708.155 193.733L699.501 194.716C699.246 194.745 699.012 194.558 698.982 194.297C698.679 191.627 696.374 189.687 693.847 189.974C691.324 190.26 689.519 192.668 689.822 195.338C689.852 195.599 689.665 195.833 689.409 195.862L680.756 196.845C680.741 196.847 680.726 196.849 680.711 196.846C680.697 196.852 680.678 196.854 680.663 196.856C680.403 196.885 680.168 196.699 680.138 196.438C679.835 193.768 677.536 191.827 675.014 192.113C672.49 192.4 670.685 194.807 670.988 197.478C671.018 197.738 670.832 197.973 670.571 198.002L499.574 217.428C499.315 217.457 499.08 217.271 499.05 217.01C499.05 217.01 499.05 217.01 499.05 217.009C498.746 214.34 496.448 212.398 493.921 212.686C491.397 212.972 489.588 215.38 489.891 218.05C489.921 218.311 489.739 218.545 489.479 218.574L480.83 219.557C480.569 219.587 480.335 219.4 480.305 219.139C480.002 216.469 477.703 214.528 475.18 214.815C472.652 215.102 470.843 217.51 471.146 220.18C471.176 220.44 470.988 220.675 470.733 220.704L462.079 221.687C461.824 221.716 461.589 221.53 461.559 221.269C461.256 218.599 458.958 216.657 456.435 216.944C453.907 217.231 452.097 219.639 452.4 222.309C452.43 222.57 452.243 222.805 451.983 222.834L444.492 223.685C444.237 223.714 444.002 223.527 443.973 223.267C443.669 220.597 441.371 218.655 438.848 218.942C436.325 219.229 434.516 221.637 434.819 224.307C434.849 224.567 434.666 224.801 434.406 224.831L425.723 225.817C425.463 225.847 425.233 225.66 425.203 225.399C424.9 222.729 422.596 220.788 420.073 221.075C417.55 221.361 415.746 223.769 416.049 226.439C416.079 226.7 415.891 226.934 415.636 226.963C415.592 226.968 415.548 226.969 415.501 226.954C415.464 226.973 415.425 226.983 415.386 226.987L405.642 228.094C405.387 228.123 405.152 227.936 405.123 227.68L403.804 216.067C403.788 215.93 403.832 215.79 403.93 215.69C404.028 215.59 404.161 215.535 404.301 215.544C404.481 215.558 404.67 215.551 404.881 215.527C407.404 215.241 409.209 212.834 408.905 210.158C408.602 207.493 406.304 205.557 403.781 205.844C403.57 205.867 403.385 205.903 403.212 205.953C403.077 205.993 402.935 205.974 402.818 205.898C402.699 205.817 402.626 205.696 402.61 205.554L401.399 194.893C401.383 194.755 401.427 194.617 401.525 194.515C401.622 194.415 401.756 194.36 401.896 194.369C402.076 194.383 402.265 194.377 402.476 194.353C404.998 194.067 406.803 191.659 406.5 188.989L406.44 188.464C406.137 185.794 403.839 183.857 401.316 184.144C401.11 184.167 400.92 184.204 400.747 184.253C400.593 184.3 400.434 184.264 400.325 184.172C400.169 184.114 400.048 183.97 400.028 183.793L398.575 170.073C398.559 169.937 398.608 169.797 398.706 169.701C398.799 169.601 398.937 169.545 399.073 169.555C399.253 169.569 399.442 169.562 399.653 169.538C402.175 169.252 403.98 166.845 403.676 164.169C403.374 161.505 401.075 159.568 398.553 159.855C398.341 159.879 398.156 159.915 397.983 159.964C397.849 160.004 397.707 159.985 397.589 159.909C397.471 159.828 397.397 159.707 397.381 159.564L396.015 147.535C395.999 147.398 396.043 147.258 396.141 147.157C396.238 147.057 396.372 147.001 396.512 147.011C396.691 147.021 396.881 147.019 397.092 146.995C399.614 146.709 401.419 144.301 401.117 141.635C400.813 138.966 398.515 137.029 395.992 137.315C395.781 137.339 395.596 137.376 395.423 137.43C395.289 137.47 395.146 137.447 395.029 137.37C394.911 137.294 394.837 137.168 394.821 137.031L393.565 125.968C393.535 125.708 393.722 125.472 393.977 125.443Z" fill="white"/>
</g>
<path d="M432.002 135.003L431.683 132.191L434.495 131.871L434.814 134.683L432.002 135.003ZM428.44 135.407L428.121 132.595L430.933 132.276L431.252 135.088L428.44 135.407ZM446.25 133.384L445.93 130.572L448.742 130.253L449.062 133.065L446.25 133.384ZM435.564 134.598L435.245 131.786L438.057 131.467L438.376 134.279L435.564 134.598ZM442.688 133.789L442.368 130.977L445.181 130.657L445.5 133.469L442.688 133.789ZM439.126 134.194L438.807 131.382L441.619 131.062L441.938 133.874L439.126 134.194ZM428.845 138.969L428.526 136.157L431.338 135.838L431.657 138.65L428.845 138.969ZM421.721 139.779L421.402 136.967L424.214 136.647L424.533 139.459L421.721 139.779ZM453.778 136.137L453.459 133.325L456.271 133.005L456.59 135.817L453.778 136.137ZM443.093 137.351L442.773 134.539L445.585 134.219L445.905 137.031L443.093 137.351ZM439.531 137.755L439.211 134.943L442.023 134.624L442.343 137.436L439.531 137.755ZM425.283 139.374L424.964 136.562L427.776 136.242L428.095 139.054L425.283 139.374ZM450.216 136.541L449.897 133.729L452.709 133.41L453.028 136.222L450.216 136.541ZM457.34 135.732L457.021 132.92L459.833 132.601L460.152 135.413L457.34 135.732ZM435.969 138.16L435.649 135.348L438.461 135.029L438.781 137.841L435.969 138.16ZM446.654 136.946L446.335 134.134L449.147 133.815L449.466 136.627L446.654 136.946ZM432.407 138.565L432.087 135.753L434.899 135.433L435.219 138.245L432.407 138.565ZM461.307 138.889L460.987 136.077L463.799 135.758L464.119 138.57L461.307 138.889ZM457.745 139.294L457.425 136.482L460.237 136.163L460.557 138.975L457.745 139.294ZM454.183 139.699L453.863 136.887L456.675 136.567L456.995 139.379L454.183 139.699ZM422.126 143.34L421.806 140.528L424.618 140.209L424.938 143.021L422.126 143.34ZM425.688 142.936L425.368 140.124L428.18 139.804L428.5 142.616L425.688 142.936ZM418.564 143.745L418.244 140.933L421.056 140.614L421.376 143.426L418.564 143.745ZM458.149 142.856L457.83 140.044L460.642 139.724L460.961 142.536L458.149 142.856ZM461.711 142.451L461.392 139.639L464.204 139.32L464.523 142.132L461.711 142.451ZM418.968 147.307L418.649 144.495L421.461 144.175L421.78 146.987L418.968 147.307ZM422.53 146.902L422.211 144.09L425.023 143.771L425.342 146.583L422.53 146.902ZM415.811 151.273L415.492 148.461L418.304 148.142L418.623 150.954L415.811 151.273ZM465.678 145.608L465.358 142.796L468.17 142.477L468.49 145.289L465.678 145.608ZM462.116 146.013L461.796 143.201L464.608 142.882L464.928 145.694L462.116 146.013ZM419.373 150.869L419.054 148.057L421.866 147.737L422.185 150.549L419.373 150.869ZM466.082 149.17L465.763 146.358L468.575 146.039L468.894 148.851L466.082 149.17ZM419.778 154.43L419.458 151.619L422.27 151.299L422.59 154.111L419.778 154.43ZM416.216 154.835L415.896 152.023L418.708 151.704L419.028 154.516L416.216 154.835ZM462.52 149.575L462.201 146.763L465.013 146.443L465.333 149.255L462.52 149.575ZM413.059 158.802L412.739 155.99L415.551 155.67L415.871 158.482L413.059 158.802ZM466.487 152.732L466.168 149.92L468.98 149.601L469.299 152.413L466.487 152.732ZM462.925 153.137L462.606 150.325L465.418 150.005L465.737 152.817L462.925 153.137ZM416.62 158.397L416.301 155.585L419.113 155.266L419.432 158.077L416.62 158.397ZM413.463 162.363L413.144 159.551L415.956 159.232L416.275 162.044L413.463 162.363ZM417.025 161.959L416.706 159.147L419.518 158.827L419.837 161.639L417.025 161.959ZM417.43 165.521L417.11 162.709L419.922 162.389L420.242 165.201L417.43 165.521ZM413.868 165.925L413.548 163.113L416.36 162.794L416.68 165.606L413.868 165.925ZM414.272 169.487L413.953 166.675L416.765 166.356L417.084 169.168L414.272 169.487ZM417.834 169.082L417.515 166.27L420.327 165.951L420.646 168.763L417.834 169.082ZM418.239 172.644L417.919 169.832L420.731 169.513L421.051 172.325L418.239 172.644ZM414.677 173.049L414.358 170.237L417.17 169.917L417.489 172.729L414.677 173.049ZM418.643 176.206L418.324 173.394L421.136 173.075L421.455 175.887L418.643 176.206ZM415.082 176.611L414.762 173.799L417.574 173.479L417.894 176.291L415.082 176.611ZM468.915 174.103L468.595 171.291L471.407 170.972L471.727 173.784L468.915 174.103ZM465.353 174.508L465.033 171.696L467.845 171.376L468.165 174.188L465.353 174.508ZM415.486 180.173L415.167 177.361L417.979 177.041L418.298 179.853L415.486 180.173ZM419.048 179.768L418.729 176.956L421.541 176.636L421.86 179.448L419.048 179.768ZM423.015 182.925L422.695 180.113L425.507 179.794L425.827 182.606L423.015 182.925ZM465.757 178.069L465.438 175.257L468.25 174.938L468.569 177.75L465.757 178.069ZM419.453 183.33L419.133 180.518L421.945 180.198L422.265 183.01L419.453 183.33ZM469.319 177.665L469 174.853L471.812 174.533L472.131 177.345L469.319 177.665ZM466.162 181.631L465.843 178.819L468.655 178.5L468.974 181.312L466.162 181.631ZM419.857 186.892L419.538 184.08L422.35 183.76L422.669 186.572L419.857 186.892ZM423.419 186.487L423.1 183.675L425.912 183.356L426.231 186.167L423.419 186.487ZM469.724 181.227L469.404 178.415L472.216 178.095L472.536 180.907L469.724 181.227ZM466.567 185.193L466.247 182.381L469.059 182.062L469.379 184.874L466.567 185.193ZM423.824 190.049L423.504 187.237L426.316 186.917L426.636 189.729L423.824 190.049ZM427.386 189.644L427.066 186.832L429.878 186.513L430.198 189.325L427.386 189.644ZM463.005 185.598L462.685 182.786L465.497 182.466L465.817 185.278L463.005 185.598ZM427.79 193.206L427.471 190.394L430.283 190.075L430.602 192.886L427.79 193.206ZM424.228 193.611L423.909 190.799L426.721 190.479L427.04 193.291L424.228 193.611ZM431.352 192.801L431.033 189.989L433.845 189.67L434.164 192.482L431.352 192.801ZM466.971 188.755L466.652 185.943L469.464 185.624L469.783 188.435L466.971 188.755ZM463.409 189.16L463.09 186.348L465.902 186.028L466.221 188.84L463.409 189.16ZM459.847 189.564L459.528 186.752L462.34 186.433L462.659 189.245L459.847 189.564ZM438.881 195.554L438.561 192.742L441.373 192.422L441.693 195.234L438.881 195.554ZM428.195 196.768L427.875 193.956L430.688 193.636L431.007 196.448L428.195 196.768ZM431.757 196.363L431.437 193.551L434.249 193.232L434.569 196.044L431.757 196.363ZM453.128 193.935L452.809 191.123L455.621 190.804L455.94 193.616L453.128 193.935ZM435.319 195.958L434.999 193.147L437.811 192.827L438.131 195.639L435.319 195.958ZM456.69 193.531L456.371 190.719L459.183 190.399L459.502 193.211L456.69 193.531ZM442.443 195.149L442.123 192.337L444.935 192.018L445.255 194.83L442.443 195.149ZM463.814 192.721L463.494 189.909L466.307 189.59L466.626 192.402L463.814 192.721ZM460.252 193.126L459.933 190.314L462.745 189.995L463.064 192.807L460.252 193.126ZM446.004 194.745L445.685 191.933L448.497 191.613L448.816 194.425L446.004 194.745ZM449.566 194.34L449.247 191.528L452.059 191.209L452.378 194.02L449.566 194.34ZM439.285 199.116L438.966 196.304L441.778 195.984L442.097 198.796L439.285 199.116ZM435.723 199.52L435.404 196.708L438.216 196.389L438.535 199.201L435.723 199.52ZM442.847 198.711L442.528 195.899L445.34 195.58L445.659 198.392L442.847 198.711ZM453.533 197.497L453.213 194.685L456.025 194.366L456.345 197.178L453.533 197.497ZM446.409 198.306L446.09 195.494L448.902 195.175L449.221 197.987L446.409 198.306ZM449.971 197.902L449.652 195.09L452.464 194.77L452.783 197.582L449.971 197.902Z" fill="black"/>
<path d="M494.54 145.937L494.22 143.125L497.032 142.806L497.352 145.618L494.54 145.937ZM505.225 144.724L504.906 141.912L507.718 141.592L508.037 144.404L505.225 144.724ZM498.101 145.533L497.782 142.721L500.594 142.401L500.913 145.213L498.101 145.533ZM490.978 146.342L490.658 143.53L493.47 143.211L493.79 146.023L490.978 146.342ZM501.663 145.128L501.344 142.316L504.156 141.997L504.475 144.809L501.663 145.128ZM487.416 146.747L487.096 143.935L489.908 143.615L490.228 146.427L487.416 146.747ZM487.82 150.309L487.501 147.497L490.313 147.177L490.632 149.989L487.82 150.309ZM494.944 149.499L494.625 146.687L497.437 146.368L497.756 149.18L494.944 149.499ZM491.382 149.904L491.063 147.092L493.875 146.772L494.194 149.584L491.382 149.904ZM484.258 150.713L483.939 147.901L486.751 147.582L487.07 150.394L484.258 150.713ZM505.63 148.285L505.31 145.473L508.122 145.154L508.442 147.966L505.63 148.285ZM509.192 147.881L508.872 145.069L511.684 144.749L512.004 147.561L509.192 147.881ZM502.068 148.69L501.748 145.878L504.561 145.559L504.88 148.371L502.068 148.69ZM498.506 149.095L498.187 146.283L500.999 145.963L501.318 148.775L498.506 149.095ZM513.158 151.038L512.839 148.226L515.651 147.906L515.97 150.718L513.158 151.038ZM484.663 154.275L484.344 151.463L487.156 151.144L487.475 153.956L484.663 154.275ZM509.596 151.443L509.277 148.631L512.089 148.311L512.408 151.123L509.596 151.443ZM481.101 154.68L480.782 151.868L483.594 151.548L483.913 154.36L481.101 154.68ZM488.225 153.87L487.905 151.058L490.718 150.739L491.037 153.551L488.225 153.87ZM506.034 151.847L505.715 149.035L508.527 148.716L508.846 151.528L506.034 151.847ZM510.001 155.004L509.682 152.192L512.494 151.873L512.813 154.685L510.001 155.004ZM481.506 158.241L481.186 155.429L483.998 155.11L484.318 157.922L481.506 158.241ZM485.068 157.837L484.748 155.025L487.56 154.705L487.88 157.517L485.068 157.837ZM513.563 154.6L513.243 151.788L516.055 151.468L516.375 154.28L513.563 154.6ZM513.967 158.162L513.648 155.35L516.46 155.03L516.779 157.842L513.967 158.162ZM517.529 157.757L517.21 154.945L520.022 154.625L520.341 157.437L517.529 157.757ZM478.348 162.208L478.029 159.396L480.841 159.076L481.16 161.888L478.348 162.208ZM481.91 161.803L481.591 158.991L484.403 158.672L484.722 161.484L481.91 161.803ZM478.753 165.77L478.434 162.958L481.246 162.638L481.565 165.45L478.753 165.77ZM482.315 165.365L481.996 162.553L484.808 162.234L485.127 165.046L482.315 165.365ZM517.934 161.319L517.615 158.507L520.427 158.187L520.746 160.999L517.934 161.319ZM514.372 161.723L514.053 158.911L516.865 158.592L517.184 161.404L514.372 161.723ZM514.777 165.285L514.457 162.473L517.269 162.154L517.589 164.966L514.777 165.285ZM518.339 164.881L518.019 162.069L520.831 161.749L521.151 164.561L518.339 164.881ZM482.72 168.927L482.4 166.115L485.212 165.796L485.532 168.607L482.72 168.927ZM479.158 169.332L478.838 166.52L481.65 166.2L481.97 169.012L479.158 169.332ZM479.562 172.893L479.243 170.081L482.055 169.762L482.374 172.574L479.562 172.893ZM483.124 172.489L482.805 169.677L485.617 169.357L485.936 172.169L483.124 172.489ZM518.743 168.442L518.424 165.63L521.236 165.311L521.555 168.123L518.743 168.442ZM515.181 168.847L514.862 166.035L517.674 165.716L517.993 168.528L515.181 168.847ZM483.529 176.051L483.209 173.239L486.021 172.919L486.341 175.731L483.529 176.051ZM519.148 172.004L518.828 169.192L521.64 168.873L521.96 171.685L519.148 172.004ZM479.967 176.455L479.647 173.643L482.459 173.324L482.779 176.136L479.967 176.455ZM515.586 172.409L515.266 169.597L518.078 169.277L518.398 172.089L515.586 172.409ZM483.933 179.612L483.614 176.8L486.426 176.481L486.745 179.293L483.933 179.612ZM515.991 175.971L515.671 173.159L518.483 172.839L518.803 175.651L515.991 175.971ZM519.552 175.566L519.233 172.754L522.045 172.435L522.364 175.247L519.552 175.566ZM480.372 180.017L480.052 177.205L482.864 176.886L483.184 179.698L480.372 180.017ZM516.395 179.533L516.076 176.721L518.888 176.401L519.207 179.213L516.395 179.533ZM512.833 179.937L512.514 177.125L515.326 176.806L515.645 179.618L512.833 179.937ZM484.338 183.174L484.019 180.362L486.831 180.043L487.15 182.855L484.338 183.174ZM487.9 182.77L487.58 179.958L490.393 179.638L490.712 182.45L487.9 182.77ZM513.238 183.499L512.918 180.687L515.73 180.368L516.05 183.18L513.238 183.499ZM516.8 183.094L516.48 180.282L519.292 179.963L519.612 182.775L516.8 183.094ZM488.305 186.331L487.985 183.519L490.797 183.2L491.117 186.012L488.305 186.331ZM509.676 183.904L509.356 181.092L512.169 180.772L512.488 183.584L509.676 183.904ZM491.866 185.927L491.547 183.115L494.359 182.795L494.678 185.607L491.866 185.927ZM484.743 186.736L484.423 183.924L487.235 183.605L487.555 186.417L484.743 186.736ZM492.271 189.489L491.952 186.677L494.764 186.357L495.083 189.169L492.271 189.489ZM495.833 189.084L495.514 186.272L498.326 185.953L498.645 188.765L495.833 189.084ZM499.395 188.679L499.075 185.867L501.887 185.548L502.207 188.36L499.395 188.679ZM510.081 187.465L509.761 184.653L512.573 184.334L512.893 187.146L510.081 187.465ZM488.709 189.893L488.39 187.081L491.202 186.762L491.521 189.574L488.709 189.893ZM513.642 187.061L513.323 184.249L516.135 183.929L516.454 186.741L513.642 187.061ZM506.519 187.87L506.199 185.058L509.011 184.739L509.331 187.551L506.519 187.87ZM502.957 188.275L502.637 185.463L505.449 185.143L505.769 187.955L502.957 188.275ZM499.799 192.241L499.48 189.429L502.292 189.11L502.611 191.922L499.799 192.241ZM496.238 192.646L495.918 189.834L498.73 189.514L499.05 192.326L496.238 192.646ZM506.923 191.432L506.604 188.62L509.416 188.3L509.735 191.112L506.923 191.432ZM492.676 193.05L492.356 190.238L495.168 189.919L495.488 192.731L492.676 193.05ZM510.485 191.027L510.166 188.215L512.978 187.896L513.297 190.708L510.485 191.027ZM503.361 191.837L503.042 189.025L505.854 188.705L506.173 191.517L503.361 191.837Z" fill="black"/>
<path d="M533.742 141.484L533.422 138.672L536.234 138.353L536.554 141.165L533.742 141.484ZM551.551 139.461L551.232 136.649L554.044 136.329L554.363 139.141L551.551 139.461ZM547.989 139.865L547.67 137.053L550.482 136.734L550.801 139.546L547.989 139.865ZM555.113 139.056L554.794 136.244L557.606 135.925L557.925 138.737L555.113 139.056ZM558.675 138.652L558.356 135.84L561.168 135.52L561.487 138.332L558.675 138.652ZM544.427 140.27L544.108 137.458L546.92 137.139L547.239 139.951L544.427 140.27ZM530.18 141.889L529.86 139.077L532.672 138.757L532.992 141.569L530.18 141.889ZM544.832 143.832L544.513 141.02L547.325 140.701L547.644 143.512L544.832 143.832ZM548.394 143.427L548.074 140.615L550.886 140.296L551.206 143.108L548.394 143.427ZM551.956 143.023L551.636 140.211L554.448 139.891L554.768 142.703L551.956 143.023ZM555.518 142.618L555.198 139.806L558.01 139.487L558.33 142.299L555.518 142.618ZM559.08 142.213L558.76 139.401L561.572 139.082L561.892 141.894L559.08 142.213ZM562.641 141.809L562.322 138.997L565.134 138.677L565.453 141.489L562.641 141.809ZM541.27 144.237L540.951 141.425L543.763 141.105L544.082 143.917L541.27 144.237ZM530.584 145.45L530.265 142.639L533.077 142.319L533.396 145.131L530.584 145.45ZM534.146 145.046L533.827 142.234L536.639 141.914L536.958 144.726L534.146 145.046ZM559.484 145.775L559.165 142.963L561.977 142.644L562.296 145.456L559.484 145.775ZM563.046 145.371L562.727 142.559L565.539 142.239L565.858 145.051L563.046 145.371ZM538.113 148.203L537.793 145.391L540.605 145.072L540.925 147.884L538.113 148.203ZM530.989 149.012L530.67 146.2L533.482 145.881L533.801 148.693L530.989 149.012ZM566.608 144.966L566.289 142.154L569.101 141.835L569.42 144.646L566.608 144.966ZM534.551 148.608L534.231 145.796L537.043 145.476L537.363 148.288L534.551 148.608ZM531.394 152.574L531.074 149.762L533.886 149.443L534.206 152.255L531.394 152.574ZM534.955 152.169L534.636 149.358L537.448 149.038L537.767 151.85L534.955 152.169ZM563.451 148.932L563.131 146.12L565.943 145.801L566.263 148.613L563.451 148.932ZM567.013 148.528L566.693 145.716L569.505 145.396L569.825 148.208L567.013 148.528ZM535.36 155.731L535.041 152.919L537.853 152.6L538.172 155.412L535.36 155.731ZM567.417 152.09L567.098 149.278L569.91 148.958L570.229 151.77L567.417 152.09ZM531.798 156.136L531.479 153.324L534.291 153.005L534.61 155.816L531.798 156.136ZM563.855 152.494L563.536 149.682L566.348 149.363L566.667 152.175L563.855 152.494ZM564.26 156.056L563.94 153.244L566.752 152.925L567.072 155.737L564.26 156.056ZM535.765 159.293L535.445 156.481L538.257 156.162L538.577 158.974L535.765 159.293ZM567.822 155.651L567.502 152.839L570.314 152.52L570.634 155.332L567.822 155.651ZM532.203 159.698L531.883 156.886L534.695 156.566L535.015 159.378L532.203 159.698ZM536.169 162.855L535.85 160.043L538.662 159.724L538.981 162.536L536.169 162.855ZM532.607 163.26L532.288 160.448L535.1 160.128L535.419 162.94L532.607 163.26ZM564.665 159.618L564.345 156.806L567.157 156.486L567.477 159.298L564.665 159.618ZM568.226 159.213L567.907 156.401L570.719 156.082L571.038 158.894L568.226 159.213ZM536.574 166.417L536.254 163.605L539.067 163.285L539.386 166.097L536.574 166.417ZM533.012 166.821L532.693 164.009L535.505 163.69L535.824 166.502L533.012 166.821ZM565.069 163.18L564.75 160.368L567.562 160.048L567.881 162.86L565.069 163.18ZM568.631 162.775L568.312 159.963L571.124 159.644L571.443 162.456L568.631 162.775ZM569.036 166.337L568.716 163.525L571.528 163.205L571.848 166.017L569.036 166.337ZM565.474 166.742L565.154 163.93L567.966 163.61L568.286 166.422L565.474 166.742ZM536.979 169.979L536.659 167.167L539.471 166.847L539.791 169.659L536.979 169.979ZM533.417 170.383L533.097 167.571L535.909 167.252L536.229 170.064L533.417 170.383ZM533.821 173.945L533.502 171.133L536.314 170.814L536.633 173.626L533.821 173.945ZM565.878 170.303L565.559 167.491L568.371 167.172L568.69 169.984L565.878 170.303ZM569.44 169.899L569.121 167.087L571.933 166.767L572.252 169.579L569.44 169.899ZM537.383 173.54L537.064 170.728L539.876 170.409L540.195 173.221L537.383 173.54ZM534.226 177.507L533.906 174.695L536.718 174.375L537.038 177.187L534.226 177.507ZM537.788 177.102L537.468 174.29L540.28 173.971L540.6 176.783L537.788 177.102ZM569.845 173.461L569.525 170.649L572.337 170.329L572.657 173.141L569.845 173.461ZM566.283 173.865L565.964 171.053L568.776 170.734L569.095 173.546L566.283 173.865ZM566.688 177.427L566.368 174.615L569.18 174.296L569.5 177.108L566.688 177.427ZM570.249 177.022L569.93 174.21L572.742 173.891L573.061 176.703L570.249 177.022ZM534.63 181.069L534.311 178.257L537.123 177.937L537.442 180.749L534.63 181.069ZM538.192 180.664L537.873 177.852L540.685 177.533L541.004 180.345L538.192 180.664ZM570.654 180.584L570.335 177.772L573.147 177.453L573.466 180.265L570.654 180.584ZM567.092 180.989L566.773 178.177L569.585 177.857L569.904 180.669L567.092 180.989ZM538.597 184.226L538.278 181.414L541.09 181.095L541.409 183.906L538.597 184.226ZM535.035 184.631L534.716 181.819L537.528 181.499L537.847 184.311L535.035 184.631ZM539.002 187.788L538.682 184.976L541.494 184.656L541.814 187.468L539.002 187.788ZM567.497 184.551L567.177 181.739L569.989 181.419L570.309 184.231L567.497 184.551ZM571.059 184.146L570.739 181.334L573.551 181.015L573.871 183.827L571.059 184.146ZM535.44 188.192L535.12 185.38L537.932 185.061L538.252 187.873L535.44 188.192Z" fill="black"/>
<path d="M605.009 133.388L604.689 130.576L607.502 130.257L607.821 133.068L605.009 133.388ZM597.885 134.197L597.566 131.385L600.378 131.066L600.697 133.878L597.885 134.197ZM608.571 132.983L608.251 130.171L611.063 129.852L611.383 132.664L608.571 132.983ZM601.447 133.793L601.128 130.981L603.94 130.661L604.259 133.473L601.447 133.793ZM590.761 135.006L590.442 132.195L593.254 131.875L593.573 134.687L590.761 135.006ZM594.323 134.602L594.004 131.79L596.816 131.47L597.135 134.282L594.323 134.602ZM591.166 138.568L590.846 135.756L593.659 135.437L593.978 138.249L591.166 138.568ZM587.604 138.973L587.285 136.161L590.097 135.842L590.416 138.653L587.604 138.973ZM608.975 136.545L608.656 133.733L611.468 133.414L611.787 136.226L608.975 136.545ZM605.414 136.95L605.094 134.138L607.906 133.818L608.226 136.63L605.414 136.95ZM601.852 137.354L601.532 134.542L604.344 134.223L604.664 137.035L601.852 137.354ZM598.29 137.759L597.97 134.947L600.782 134.628L601.102 137.44L598.29 137.759ZM612.537 136.14L612.218 133.329L615.03 133.009L615.349 135.821L612.537 136.14ZM594.728 138.164L594.408 135.352L597.22 135.032L597.54 137.844L594.728 138.164ZM612.942 139.702L612.623 136.89L615.435 136.571L615.754 139.383L612.942 139.702ZM616.504 139.298L616.184 136.486L618.996 136.166L619.316 138.978L616.504 139.298ZM591.571 142.13L591.251 139.318L594.063 138.999L594.383 141.811L591.571 142.13ZM609.38 140.107L609.061 137.295L611.873 136.976L612.192 139.788L609.38 140.107ZM588.009 142.535L587.689 139.723L590.501 139.403L590.821 142.215L588.009 142.535ZM584.447 142.939L584.127 140.127L586.939 139.808L587.259 142.62L584.447 142.939ZM620.47 142.455L620.151 139.643L622.963 139.323L623.282 142.135L620.47 142.455ZM616.908 142.86L616.589 140.048L619.401 139.728L619.72 142.54L616.908 142.86ZM584.851 146.501L584.532 143.689L587.344 143.37L587.663 146.182L584.851 146.501ZM588.413 146.097L588.094 143.285L590.906 142.965L591.225 145.777L588.413 146.097ZM613.347 143.264L613.027 140.452L615.839 140.133L616.159 142.945L613.347 143.264ZM620.875 146.017L620.556 143.205L623.368 142.885L623.687 145.697L620.875 146.017ZM585.256 150.063L584.937 147.251L587.749 146.932L588.068 149.744L585.256 150.063ZM581.694 150.468L581.375 147.656L584.187 147.336L584.506 150.148L581.694 150.468ZM617.313 146.421L616.994 143.609L619.806 143.29L620.125 146.102L617.313 146.421ZM582.099 154.03L581.779 151.218L584.591 150.898L584.911 153.71L582.099 154.03ZM585.661 153.625L585.341 150.813L588.153 150.493L588.473 153.305L585.661 153.625ZM586.065 157.187L585.746 154.375L588.558 154.055L588.877 156.867L586.065 157.187ZM582.503 157.591L582.184 154.779L584.996 154.46L585.315 157.272L582.503 157.591ZM582.908 161.153L582.588 158.341L585.4 158.022L585.72 160.834L582.908 161.153ZM586.47 160.749L586.15 157.937L588.962 157.617L589.282 160.429L586.47 160.749ZM583.313 164.715L582.993 161.903L585.805 161.584L586.125 164.396L583.313 164.715ZM586.874 164.31L586.555 161.498L589.367 161.179L589.686 163.991L586.874 164.31ZM587.279 167.872L586.96 165.06L589.772 164.741L590.091 167.553L587.279 167.872ZM619.336 164.23L619.017 161.418L621.829 161.099L622.148 163.911L619.336 164.23ZM622.898 163.826L622.579 161.014L625.391 160.694L625.71 163.506L622.898 163.826ZM583.717 168.277L583.398 165.465L586.21 165.145L586.529 167.957L583.717 168.277ZM616.179 168.197L615.859 165.385L618.671 165.066L618.991 167.877L616.179 168.197ZM619.741 167.792L619.421 164.98L622.233 164.661L622.553 167.473L619.741 167.792ZM623.303 167.388L622.983 164.576L625.795 164.256L626.115 167.068L623.303 167.388ZM591.246 171.029L590.926 168.217L593.738 167.898L594.058 170.71L591.246 171.029ZM587.684 171.434L587.364 168.622L590.176 168.303L590.496 171.115L587.684 171.434ZM595.212 174.187L594.893 171.375L597.705 171.055L598.024 173.867L595.212 174.187ZM616.583 171.759L616.264 168.947L619.076 168.627L619.395 171.439L616.583 171.759ZM613.022 172.163L612.702 169.351L615.514 169.032L615.834 171.844L613.022 172.163ZM591.65 174.591L591.331 171.779L594.143 171.46L594.462 174.272L591.65 174.591ZM588.088 174.996L587.769 172.184L590.581 171.864L590.9 174.676L588.088 174.996ZM620.145 171.354L619.826 168.542L622.638 168.223L622.957 171.035L620.145 171.354ZM606.302 176.534L605.983 173.723L608.795 173.403L609.114 176.215L606.302 176.534ZM595.617 177.748L595.297 174.936L598.109 174.617L598.429 177.429L595.617 177.748ZM592.055 178.153L591.735 175.341L594.547 175.022L594.867 177.834L592.055 178.153ZM599.179 177.344L598.859 174.532L601.671 174.212L601.991 177.024L599.179 177.344ZM602.74 176.939L602.421 174.127L605.233 173.808L605.552 176.62L602.74 176.939ZM609.864 176.13L609.545 173.318L612.357 172.998L612.676 175.81L609.864 176.13ZM613.426 175.725L613.107 172.913L615.919 172.594L616.238 175.406L613.426 175.725ZM616.988 175.321L616.669 172.509L619.481 172.189L619.8 175.001L616.988 175.321ZM610.269 179.692L609.949 176.88L612.761 176.56L613.081 179.372L610.269 179.692ZM596.021 181.31L595.702 178.498L598.514 178.179L598.833 180.991L596.021 181.31ZM599.583 180.906L599.264 178.094L602.076 177.774L602.395 180.586L599.583 180.906ZM613.831 179.287L613.511 176.475L616.323 176.156L616.643 178.968L613.831 179.287ZM606.707 180.096L606.388 177.284L609.2 176.965L609.519 179.777L606.707 180.096ZM603.145 180.501L602.826 177.689L605.638 177.37L605.957 180.182L603.145 180.501Z" fill="black"/>
<path d="M651.335 128.125L651.015 125.313L653.827 124.994L654.147 127.806L651.335 128.125ZM647.773 128.53L647.454 125.718L650.266 125.398L650.585 128.21L647.773 128.53ZM644.211 128.935L643.892 126.123L646.704 125.803L647.023 128.615L644.211 128.935ZM654.897 127.721L654.577 124.909L657.389 124.589L657.709 127.401L654.897 127.721ZM640.649 129.339L640.33 126.527L643.142 126.208L643.461 129.02L640.649 129.339ZM658.459 127.316L658.139 124.504L660.951 124.185L661.271 126.997L658.459 127.316ZM662.425 130.473L662.106 127.661L664.918 127.342L665.237 130.154L662.425 130.473ZM648.178 132.092L647.858 129.28L650.67 128.96L650.99 131.772L648.178 132.092ZM637.492 133.306L637.172 130.494L639.984 130.174L640.304 132.986L637.492 133.306ZM644.616 132.496L644.296 129.684L647.108 129.365L647.428 132.177L644.616 132.496ZM658.863 130.878L658.544 128.066L661.356 127.746L661.675 130.558L658.863 130.878ZM641.054 132.901L640.734 130.089L643.546 129.77L643.866 132.582L641.054 132.901ZM655.301 131.282L654.982 128.47L657.794 128.151L658.113 130.963L655.301 131.282ZM651.739 131.687L651.42 128.875L654.232 128.556L654.551 131.368L651.739 131.687ZM641.458 136.463L641.139 133.651L643.951 133.331L644.27 136.143L641.458 136.463ZM666.392 133.63L666.072 130.818L668.884 130.499L669.204 133.311L666.392 133.63ZM637.896 136.867L637.577 134.055L640.389 133.736L640.708 136.548L637.896 136.867ZM634.335 137.272L634.015 134.46L636.827 134.141L637.147 136.953L634.335 137.272ZM659.268 134.44L658.948 131.628L661.76 131.308L662.08 134.12L659.268 134.44ZM662.83 134.035L662.51 131.223L665.322 130.904L665.642 133.716L662.83 134.035ZM663.234 137.597L662.915 134.785L665.727 134.465L666.046 137.277L663.234 137.597ZM638.301 140.429L637.982 137.617L640.794 137.298L641.113 140.11L638.301 140.429ZM666.796 137.192L666.477 134.38L669.289 134.061L669.608 136.873L666.796 137.192ZM634.739 140.834L634.42 138.022L637.232 137.702L637.551 140.514L634.739 140.834ZM667.201 140.754L666.881 137.942L669.693 137.623L670.013 140.435L667.201 140.754ZM635.144 144.396L634.824 141.584L637.636 141.264L637.956 144.076L635.144 144.396ZM631.582 144.8L631.262 141.988L634.074 141.669L634.394 144.481L631.582 144.8ZM670.763 140.349L670.443 137.537L673.255 137.218L673.575 140.03L670.763 140.349ZM671.167 143.911L670.848 141.099L673.66 140.78L673.979 143.592L671.167 143.911ZM667.605 144.316L667.286 141.504L670.098 141.184L670.418 143.996L667.605 144.316ZM631.987 148.362L631.667 145.55L634.479 145.231L634.799 148.043L631.987 148.362ZM635.548 147.958L635.229 145.146L638.041 144.826L638.36 147.638L635.548 147.958ZM668.01 147.878L667.691 145.066L670.503 144.746L670.822 147.558L668.01 147.878ZM671.572 147.473L671.253 144.661L674.065 144.342L674.384 147.154L671.572 147.473ZM639.515 151.115L639.195 148.303L642.008 147.983L642.327 150.795L639.515 151.115ZM643.077 150.71L642.757 147.898L645.569 147.579L645.889 150.391L643.077 150.71ZM650.201 149.901L649.881 147.089L652.693 146.769L653.013 149.581L650.201 149.901ZM653.762 149.496L653.443 146.684L656.255 146.365L656.575 149.177L653.762 149.496ZM657.324 149.092L657.005 146.28L659.817 145.96L660.136 148.772L657.324 149.092ZM660.886 148.687L660.567 145.875L663.379 145.556L663.698 148.367L660.886 148.687ZM664.448 148.282L664.129 145.47L666.941 145.151L667.26 147.963L664.448 148.282ZM646.639 150.305L646.319 147.494L649.131 147.174L649.451 149.986L646.639 150.305ZM632.391 151.924L632.072 149.112L634.884 148.793L635.203 151.605L632.391 151.924ZM635.953 151.519L635.634 148.707L638.446 148.388L638.765 151.2L635.953 151.519ZM632.796 155.486L632.476 152.674L635.288 152.354L635.608 155.166L632.796 155.486ZM664.853 151.844L664.533 149.032L667.345 148.713L667.665 151.525L664.853 151.844ZM661.291 152.249L660.971 149.437L663.784 149.117L664.103 151.929L661.291 152.249ZM657.729 152.653L657.41 149.841L660.222 149.522L660.541 152.334L657.729 152.653ZM654.167 153.058L653.848 150.246L656.66 149.927L656.979 152.739L654.167 153.058ZM650.605 153.463L650.286 150.651L653.098 150.331L653.417 153.143L650.605 153.463ZM647.043 153.867L646.724 151.055L649.536 150.736L649.855 153.548L647.043 153.867ZM643.481 154.272L643.162 151.46L645.974 151.141L646.293 153.952L643.481 154.272ZM639.92 154.677L639.6 151.865L642.412 151.545L642.732 154.357L639.92 154.677ZM668.415 151.439L668.095 148.628L670.907 148.308L671.227 151.12L668.415 151.439ZM671.977 151.035L671.657 148.223L674.469 147.903L674.789 150.715L671.977 151.035ZM636.358 155.081L636.038 152.269L638.85 151.95L639.17 154.762L636.358 155.081ZM633.2 159.048L632.881 156.236L635.693 155.916L636.012 158.728L633.2 159.048ZM636.762 158.643L636.443 155.831L639.255 155.512L639.574 158.324L636.762 158.643ZM633.605 162.61L633.286 159.798L636.098 159.478L636.417 162.29L633.605 162.61ZM637.167 162.205L636.847 159.393L639.659 159.073L639.979 161.885L637.167 162.205ZM669.629 162.125L669.309 159.313L672.121 158.994L672.441 161.806L669.629 162.125ZM673.19 161.72L672.871 158.908L675.683 158.589L676.002 161.401L673.19 161.72ZM637.571 165.767L637.252 162.955L640.064 162.635L640.383 165.447L637.571 165.767ZM641.133 165.362L640.814 162.55L643.626 162.231L643.945 165.043L641.133 165.362ZM645.1 168.519L644.78 165.707L647.592 165.388L647.912 168.2L645.1 168.519ZM673.595 165.282L673.276 162.47L676.088 162.151L676.407 164.963L673.595 165.282ZM666.471 166.091L666.152 163.279L668.964 162.96L669.283 165.772L666.471 166.091ZM637.976 169.329L637.657 166.517L640.469 166.197L640.788 169.009L637.976 169.329ZM641.538 168.924L641.219 166.112L644.031 165.792L644.35 168.604L641.538 168.924ZM670.033 165.687L669.714 162.875L672.526 162.555L672.845 165.367L670.033 165.687ZM656.19 170.867L655.871 168.055L658.683 167.736L659.002 170.548L656.19 170.867ZM641.943 172.486L641.623 169.674L644.435 169.354L644.755 172.166L641.943 172.486ZM652.628 171.272L652.309 168.46L655.121 168.14L655.44 170.952L652.628 171.272ZM649.066 171.676L648.747 168.864L651.559 168.545L651.878 171.357L649.066 171.676ZM666.876 169.653L666.556 166.841L669.368 166.522L669.688 169.334L666.876 169.653ZM645.504 172.081L645.185 169.269L647.997 168.95L648.317 171.762L645.504 172.081ZM670.438 169.249L670.118 166.437L672.93 166.117L673.25 168.929L670.438 169.249ZM663.314 170.058L662.995 167.246L665.807 166.926L666.126 169.738L663.314 170.058ZM659.752 170.463L659.433 167.651L662.245 167.331L662.564 170.143L659.752 170.463ZM656.595 174.429L656.275 171.617L659.087 171.298L659.407 174.11L656.595 174.429ZM653.033 174.834L652.713 172.022L655.526 171.702L655.845 174.514L653.033 174.834ZM649.471 175.238L649.152 172.426L651.964 172.107L652.283 174.919L649.471 175.238ZM645.909 175.643L645.59 172.831L648.402 172.511L648.721 175.323L645.909 175.643ZM663.719 173.62L663.399 170.808L666.211 170.488L666.531 173.3L663.719 173.62ZM660.157 174.024L659.837 171.212L662.649 170.893L662.969 173.705L660.157 174.024Z" fill="black"/>
<path d="M701.223 122.458L700.903 119.646L703.715 119.326L704.035 122.138L701.223 122.458ZM704.785 122.053L704.465 119.241L707.277 118.922L707.597 121.734L704.785 122.053ZM708.346 121.649L708.027 118.837L710.839 118.517L711.159 121.329L708.346 121.649ZM711.908 121.244L711.589 118.432L714.401 118.113L714.72 120.925L711.908 121.244ZM686.975 124.076L686.656 121.264L689.468 120.945L689.787 123.757L686.975 124.076ZM683.413 124.481L683.094 121.669L685.906 121.35L686.225 124.162L683.413 124.481ZM697.661 122.863L697.341 120.051L700.153 119.731L700.473 122.543L697.661 122.863ZM701.627 126.02L701.308 123.208L704.12 122.888L704.439 125.7L701.627 126.02ZM687.38 127.638L687.06 124.826L689.872 124.507L690.192 127.319L687.38 127.638ZM683.818 128.043L683.498 125.231L686.31 124.912L686.63 127.723L683.818 128.043ZM708.751 125.21L708.432 122.398L711.244 122.079L711.563 124.891L708.751 125.21ZM705.189 125.615L704.87 122.803L707.682 122.484L708.001 125.296L705.189 125.615ZM698.065 126.424L697.746 123.612L700.558 123.293L700.877 126.105L698.065 126.424ZM694.504 126.829L694.184 124.017L696.996 123.698L697.316 126.51L694.504 126.829ZM712.313 124.806L711.994 121.994L714.806 121.674L715.125 124.486L712.313 124.806ZM715.875 124.401L715.555 121.589L718.368 121.27L718.687 124.082L715.875 124.401ZM684.222 131.605L683.903 128.793L686.715 128.473L687.034 131.285L684.222 131.605ZM719.841 127.558L719.522 124.746L722.334 124.427L722.653 127.239L719.841 127.558ZM716.279 127.963L715.96 125.151L718.772 124.832L719.092 127.644L716.279 127.963ZM687.784 131.2L687.465 128.388L690.277 128.069L690.596 130.881L687.784 131.2ZM712.718 128.368L712.398 125.556L715.21 125.236L715.53 128.048L712.718 128.368ZM691.346 130.795L691.027 127.984L693.839 127.664L694.158 130.476L691.346 130.795ZM723.808 130.716L723.488 127.904L726.301 127.584L726.62 130.396L723.808 130.716ZM684.627 135.167L684.308 132.355L687.12 132.035L687.439 134.847L684.627 135.167ZM688.189 134.762L687.869 131.95L690.682 131.631L691.001 134.442L688.189 134.762ZM691.751 134.357L691.431 131.545L694.243 131.226L694.563 134.038L691.751 134.357ZM716.684 131.525L716.365 128.713L719.177 128.393L719.496 131.205L716.684 131.525ZM720.246 131.12L719.927 128.308L722.739 127.989L723.058 130.801L720.246 131.12ZM724.213 134.277L723.893 131.465L726.705 131.146L727.025 133.958L724.213 134.277ZM685.032 138.728L684.712 135.916L687.524 135.597L687.844 138.409L685.032 138.728ZM688.594 138.324L688.274 135.512L691.086 135.192L691.406 138.004L688.594 138.324ZM720.651 134.682L720.331 131.87L723.143 131.551L723.463 134.363L720.651 134.682ZM724.617 137.839L724.298 135.027L727.11 134.708L727.429 137.52L724.617 137.839ZM721.055 138.244L720.736 135.432L723.548 135.112L723.867 137.924L721.055 138.244ZM688.998 141.886L688.679 139.074L691.491 138.754L691.81 141.566L688.998 141.886ZM685.436 142.29L685.117 139.478L687.929 139.159L688.248 141.971L685.436 142.29ZM725.022 141.401L724.702 138.589L727.514 138.27L727.834 141.082L725.022 141.401ZM721.46 141.806L721.14 138.994L723.952 138.674L724.272 141.486L721.46 141.806ZM685.841 145.852L685.521 143.04L688.333 142.721L688.653 145.533L685.841 145.852ZM689.403 145.447L689.083 142.635L691.895 142.316L692.215 145.128L689.403 145.447ZM725.426 144.963L725.107 142.151L727.919 141.831L728.238 144.643L725.426 144.963ZM721.864 145.368L721.545 142.556L724.357 142.236L724.676 145.048L721.864 145.368ZM689.807 149.009L689.488 146.197L692.3 145.878L692.619 148.69L689.807 149.009ZM686.245 149.414L685.926 146.602L688.738 146.282L689.057 149.094L686.245 149.414ZM725.831 148.525L725.512 145.713L728.324 145.393L728.643 148.205L725.831 148.525ZM686.65 152.976L686.331 150.164L689.143 149.844L689.462 152.656L686.65 152.976ZM690.212 152.571L689.893 149.759L692.705 149.44L693.024 152.252L690.212 152.571ZM722.269 148.929L721.95 146.117L724.762 145.798L725.081 148.61L722.269 148.929ZM726.236 152.087L725.916 149.275L728.728 148.955L729.048 151.767L726.236 152.087ZM690.617 156.133L690.297 153.321L693.109 153.001L693.429 155.813L690.617 156.133ZM722.674 152.491L722.354 149.679L725.166 149.36L725.486 152.172L722.674 152.491ZM687.055 156.538L686.735 153.726L689.547 153.406L689.867 156.218L687.055 156.538ZM691.021 159.695L690.702 156.883L693.514 156.563L693.833 159.375L691.021 159.695ZM687.459 160.099L687.14 157.287L689.952 156.968L690.271 159.78L687.459 160.099ZM723.078 156.053L722.759 153.241L725.571 152.922L725.89 155.734L723.078 156.053ZM694.583 159.29L694.264 156.478L697.076 156.159L697.395 158.971L694.583 159.29ZM719.516 156.458L719.197 153.646L722.009 153.326L722.328 156.138L719.516 156.458ZM726.64 155.648L726.321 152.836L729.133 152.517L729.452 155.329L726.64 155.648ZM719.921 160.019L719.602 157.207L722.414 156.888L722.733 159.7L719.921 160.019ZM723.483 159.615L723.163 156.803L725.976 156.483L726.295 159.295L723.483 159.615ZM687.864 163.661L687.544 160.849L690.356 160.53L690.676 163.342L687.864 163.661ZM691.426 163.257L691.106 160.445L693.918 160.125L694.238 162.937L691.426 163.257ZM694.988 162.852L694.668 160.04L697.48 159.72L697.8 162.532L694.988 162.852ZM716.359 160.424L716.04 157.612L718.852 157.293L719.171 160.105L716.359 160.424ZM713.202 164.391L712.882 161.579L715.694 161.259L716.014 164.071L713.202 164.391ZM709.64 164.795L709.321 161.983L712.133 161.664L712.452 164.476L709.64 164.795ZM706.078 165.2L705.759 162.388L708.571 162.068L708.89 164.88L706.078 165.2ZM702.516 165.604L702.197 162.792L705.009 162.473L705.328 165.285L702.516 165.604ZM698.954 166.009L698.635 163.197L701.447 162.878L701.766 165.69L698.954 166.009ZM720.326 163.581L720.006 160.769L722.818 160.45L723.138 163.262L720.326 163.581ZM691.83 166.818L691.511 164.006L694.323 163.687L694.642 166.499L691.83 166.818ZM716.764 163.986L716.444 161.174L719.256 160.854L719.576 163.666L716.764 163.986ZM688.269 167.223L687.949 164.411L690.761 164.092L691.081 166.904L688.269 167.223ZM702.921 169.166L702.601 166.354L705.413 166.035L705.733 168.847L702.921 169.166ZM692.235 170.38L691.916 167.568L694.728 167.249L695.047 170.061L692.235 170.38ZM688.673 170.785L688.354 167.973L691.166 167.653L691.485 170.465L688.673 170.785ZM706.483 168.762L706.163 165.95L708.975 165.63L709.295 168.442L706.483 168.762ZM710.045 168.357L709.725 165.545L712.537 165.226L712.857 168.038L710.045 168.357ZM717.168 167.548L716.849 164.736L719.661 164.416L719.98 167.228L717.168 167.548ZM713.606 167.952L713.287 165.14L716.099 164.821L716.418 167.633L713.606 167.952ZM692.64 173.942L692.32 171.13L695.132 170.811L695.452 173.623L692.64 173.942ZM689.078 174.347L688.758 171.535L691.57 171.215L691.89 174.027L689.078 174.347ZM689.482 177.908L689.163 175.097L691.975 174.777L692.294 177.589L689.482 177.908ZM693.044 177.504L692.725 174.692L695.537 174.372L695.856 177.184L693.044 177.504ZM693.449 181.066L693.129 178.254L695.941 177.934L696.261 180.746L693.449 181.066ZM689.887 181.47L689.568 178.658L692.38 178.339L692.699 181.151L689.887 181.47ZM690.292 185.032L689.972 182.22L692.784 181.901L693.104 184.713L690.292 185.032ZM693.853 184.628L693.534 181.816L696.346 181.496L696.666 184.308L693.853 184.628Z" fill="black"/>
<path d="M742.781 106.913L742.462 104.101L745.274 103.782L745.593 106.594L742.781 106.913ZM739.219 107.318L738.9 104.506L741.712 104.187L742.031 106.999L739.219 107.318ZM743.186 110.475L742.866 107.663L745.678 107.344L745.998 110.156L743.186 110.475ZM739.624 110.88L739.304 108.068L742.116 107.748L742.436 110.56L739.624 110.88ZM740.028 114.442L739.709 111.63L742.521 111.31L742.84 114.122L740.028 114.442ZM743.59 114.037L743.271 111.225L746.083 110.906L746.402 113.718L743.59 114.037ZM736.871 118.408L736.552 115.596L739.364 115.277L739.683 118.089L736.871 118.408ZM733.309 118.813L732.99 116.001L735.802 115.681L736.121 118.493L733.309 118.813ZM747.557 117.194L747.237 114.382L750.049 114.063L750.369 116.875L747.557 117.194ZM751.119 116.79L750.799 113.978L753.611 113.658L753.931 116.47L751.119 116.79ZM754.68 116.385L754.361 113.573L757.173 113.254L757.492 116.066L754.68 116.385ZM758.242 115.98L757.923 113.168L760.735 112.849L761.054 115.661L758.242 115.98ZM740.433 118.004L740.113 115.192L742.925 114.872L743.245 117.684L740.433 118.004ZM743.995 117.599L743.675 114.787L746.487 114.468L746.807 117.279L743.995 117.599ZM737.276 121.97L736.956 119.158L739.768 118.839L740.088 121.651L737.276 121.97ZM733.714 122.375L733.394 119.563L736.206 119.243L736.526 122.055L733.714 122.375ZM747.961 120.756L747.642 117.944L750.454 117.625L750.773 120.437L747.961 120.756ZM751.523 120.351L751.204 117.54L754.016 117.22L754.335 120.032L751.523 120.351ZM744.399 121.161L744.08 118.349L746.892 118.029L747.211 120.841L744.399 121.161ZM740.837 121.565L740.518 118.753L743.33 118.434L743.65 121.246L740.837 121.565ZM755.085 119.947L754.766 117.135L757.578 116.815L757.897 119.627L755.085 119.947ZM758.647 119.542L758.328 116.73L761.14 116.411L761.459 119.223L758.647 119.542ZM744.804 124.723L744.485 121.911L747.297 121.591L747.616 124.403L744.804 124.723ZM741.242 125.127L740.923 122.315L743.735 121.996L744.054 124.808L741.242 125.127ZM741.647 128.689L741.327 125.877L744.139 125.558L744.459 128.37L741.647 128.689ZM745.209 128.284L744.889 125.472L747.701 125.153L748.021 127.965L745.209 128.284ZM742.051 132.251L741.732 129.439L744.544 129.119L744.863 131.931L742.051 132.251ZM745.613 131.846L745.294 129.034L748.106 128.715L748.425 131.527L745.613 131.846ZM746.018 135.408L745.698 132.596L748.51 132.277L748.83 135.089L746.018 135.408ZM742.456 135.813L742.136 133.001L744.949 132.681L745.268 135.493L742.456 135.813ZM746.422 138.97L746.103 136.158L748.915 135.838L749.234 138.65L746.422 138.97ZM742.861 139.375L742.541 136.563L745.353 136.243L745.673 139.055L742.861 139.375ZM746.827 142.532L746.508 139.72L749.32 139.4L749.639 142.212L746.827 142.532ZM743.265 142.936L742.946 140.124L745.758 139.805L746.077 142.617L743.265 142.936ZM747.232 146.094L746.912 143.282L749.724 142.962L750.044 145.774L747.232 146.094ZM743.67 146.498L743.35 143.686L746.162 143.367L746.482 146.179L743.67 146.498ZM747.636 149.655L747.317 146.843L750.129 146.524L750.448 149.336L747.636 149.655ZM744.074 150.06L743.755 147.248L746.567 146.929L746.886 149.741L744.074 150.06ZM744.479 153.622L744.16 150.81L746.972 150.49L747.291 153.302L744.479 153.622ZM748.041 153.217L747.721 150.405L750.533 150.086L750.853 152.898L748.041 153.217ZM748.445 156.779L748.126 153.967L750.938 153.648L751.258 156.46L748.445 156.779ZM744.884 157.184L744.564 154.372L747.376 154.052L747.696 156.864L744.884 157.184ZM759.536 159.127L759.216 156.315L762.028 155.996L762.348 158.807L759.536 159.127ZM755.974 159.532L755.654 156.72L758.467 156.4L758.786 159.212L755.974 159.532ZM752.412 159.936L752.093 157.124L754.905 156.805L755.224 159.617L752.412 159.936ZM748.85 160.341L748.531 157.529L751.343 157.209L751.662 160.021L748.85 160.341ZM763.098 158.722L762.778 155.91L765.59 155.591L765.91 158.403L763.098 158.722ZM759.94 162.689L759.621 159.877L762.433 159.557L762.752 162.369L759.94 162.689ZM756.379 163.093L756.059 160.281L758.871 159.962L759.191 162.774L756.379 163.093ZM752.817 163.498L752.497 160.686L755.309 160.367L755.629 163.179L752.817 163.498ZM763.502 162.284L763.183 159.472L765.995 159.153L766.314 161.965L763.502 162.284Z" fill="black"/>
<path d="M360.432 125.254C355.254 125.254 350.502 124.048 346.176 121.566C341.849 119.084 338.373 115.537 335.82 110.856C333.267 106.175 331.99 100.642 331.99 94.2588V92.6275C331.99 86.2441 333.267 80.7116 335.82 76.1015C338.373 71.4913 341.778 67.8738 346.105 65.3914C350.431 62.9089 355.184 61.6322 360.432 61.6322C365.681 61.6322 368.164 62.1996 371.072 63.2635C373.98 64.3984 376.32 65.746 378.165 67.4482C379.938 69.1506 381.356 70.9238 382.349 72.8388H384.052V37.375H393.769V123.481H384.264V113.48H382.562C380.931 116.53 378.377 119.225 374.902 121.637C371.426 123.978 366.603 125.183 360.361 125.183L360.432 125.254ZM362.986 116.672C369.227 116.672 374.263 114.686 378.165 110.714C382.065 106.742 383.981 101.21 383.981 94.0462V92.9112C383.981 85.7474 381.995 80.2153 378.165 76.2433C374.263 72.2714 369.227 70.2852 362.986 70.2852C356.744 70.2852 351.779 72.2714 347.807 76.2433C343.835 80.2153 341.849 85.7474 341.849 92.9112V94.0462C341.849 101.21 343.835 106.742 347.807 110.714C351.779 114.686 356.886 116.672 362.986 116.672Z" fill="white"/>
<path d="M435.612 125.258C429.512 125.258 424.192 123.981 419.582 121.357C414.972 118.804 411.425 115.115 408.872 110.505C406.318 105.824 405.042 100.434 405.042 94.2628V92.7734C405.042 86.5316 406.318 81.0702 408.872 76.3889C411.425 71.7079 414.972 68.0905 419.44 65.5371C423.979 62.9837 429.086 61.6361 434.974 61.6361C440.861 61.6361 445.613 62.8419 450.01 65.2534C454.408 67.6649 457.742 71.1404 460.224 75.6799C462.707 80.219 463.912 85.4677 463.912 91.5674V95.9649H414.83C415.113 102.419 417.17 107.526 421.142 111.143C425.114 114.832 430.008 116.605 435.896 116.605C441.783 116.605 445.045 115.399 447.812 113.058C450.578 110.718 452.706 107.881 454.195 104.547L462.565 108.59C461.359 111.143 459.657 113.697 457.458 116.25C455.259 118.804 452.422 120.932 448.947 122.634C445.471 124.336 441.003 125.187 435.612 125.187V125.258ZM414.901 87.9502H454.053C453.699 82.347 451.855 78.0202 448.308 74.8994C444.833 71.7787 440.364 70.2185 434.974 70.2185C429.583 70.2185 424.973 71.7787 421.426 74.8994C417.88 78.0202 415.752 82.347 414.901 87.9502Z" fill="white"/>
<path d="M474.699 123.556V63.4098H484.204V70.7862H485.906C486.97 68.1621 488.602 66.2469 490.801 64.9702C492.999 63.6935 495.906 63.1261 499.525 63.1261H506.689V71.9922H498.958C494.631 71.9922 491.084 73.1979 488.46 75.6093C485.764 78.0207 484.488 81.7801 484.488 86.8869V123.556H474.699Z" fill="white"/>
<g filter="url(#filter1_d_115_84)">
<path d="M514.911 123.548V63.401H524.631V123.548H514.911Z" fill="white"/>
</g>
<path d="M514.911 50.4966V37.375H524.631V50.4966H514.911Z" fill="white"/>
<g filter="url(#filter2_d_115_84)">
<path d="M554.204 123.548L532.642 63.401H542.999L561.086 116.313H562.787L580.874 63.401H591.231L569.666 123.548H554.134H554.204Z" fill="white"/>
</g>
<g filter="url(#filter3_d_115_84)">
<path d="M624.21 125.258C618.112 125.258 612.79 123.981 608.252 121.357C603.64 118.804 600.095 115.115 597.543 110.505C594.987 105.824 593.712 100.434 593.712 94.2628V92.7734C593.712 86.5316 594.987 81.0702 597.543 76.3889C600.095 71.7079 603.64 68.0905 608.111 65.5371C612.649 62.9837 617.757 61.6361 623.643 61.6361C629.529 61.6361 634.281 62.8419 638.678 65.2534C643.079 67.6649 646.412 71.1404 648.894 75.6799C651.376 80.219 652.583 85.4677 652.583 91.5674V95.9649H603.499C603.711 102.419 605.84 107.526 609.741 111.143C613.712 114.832 618.608 116.605 624.495 116.605C630.381 116.605 633.644 115.399 636.411 113.058C639.178 110.718 641.304 107.881 642.794 104.547L651.165 108.59C649.958 111.143 648.254 113.697 646.057 116.25C643.857 118.804 641.019 120.932 637.545 122.634C634.07 124.336 629.603 125.187 624.21 125.187V125.258ZM603.499 87.9502H642.653C642.297 82.347 640.382 78.0202 636.907 74.8994C633.433 71.7787 628.962 70.2185 623.572 70.2185C618.183 70.2185 613.571 71.7787 610.026 74.8994C606.478 78.0202 604.351 82.347 603.499 87.9502Z" fill="white"/>
</g>
<g filter="url(#filter4_d_115_84)">
<path d="M663.368 123.556V63.4098H672.873V70.7862H674.576C675.639 68.1621 677.27 66.2469 679.47 64.9702C681.667 63.6935 684.578 63.1261 688.193 63.1261H695.357V71.9922H687.626C683.3 71.9922 679.752 73.1979 677.129 75.6093C674.432 78.0207 673.158 81.7801 673.158 86.8869V123.556H663.368Z" fill="white"/>
</g>
<g filter="url(#filter5_d_115_84)">
<path d="M726.563 125.252C719.117 125.252 712.802 123.549 707.697 120.074C702.589 116.598 699.47 111.137 698.404 103.69L707.627 101.633C708.264 105.534 709.542 108.655 711.313 110.924C713.087 113.194 715.358 114.754 718.051 115.747C720.747 116.669 723.585 117.166 726.634 117.166C731.175 117.166 734.72 116.244 737.346 114.47C739.969 112.697 741.317 110.286 741.317 107.236C741.317 104.186 740.039 101.916 737.557 100.64C735.075 99.3631 731.601 98.2993 727.274 97.5188L722.237 96.668C718.406 96.0294 714.861 94.9656 711.668 93.618C708.476 92.1993 705.923 90.3554 704.008 87.9436C702.093 85.603 701.171 82.5533 701.171 78.9359C701.171 73.5456 703.227 69.2899 707.412 66.2399C711.598 63.19 717.129 61.7006 724.011 61.7006C730.89 61.7006 736.353 63.261 740.536 66.3109C744.792 69.3607 747.488 73.6874 748.692 79.2907L739.613 81.631C738.905 77.3046 737.131 74.2546 734.294 72.4814C731.527 70.7082 728.052 69.8574 723.94 69.8574C719.825 69.8574 716.632 70.6375 714.221 72.1269C711.809 73.6164 710.676 75.8859 710.676 78.8651C710.676 81.844 711.809 83.8298 714.08 85.1777C716.35 86.5253 719.329 87.518 723.159 88.1566L728.196 89.0078C732.449 89.7168 736.279 90.781 739.687 91.9867C743.091 93.2632 745.784 95.1074 747.843 97.4481C749.829 99.8595 750.822 102.98 750.822 106.81C750.822 112.697 748.622 117.237 744.225 120.429C739.828 123.62 733.942 125.252 726.563 125.252Z" fill="white"/>
</g>
<path d="M788.555 125.258C782.454 125.258 777.135 123.981 772.594 121.357C767.986 118.804 764.437 115.115 761.885 110.505C759.332 105.824 758.055 100.434 758.055 94.2628V92.7734C758.055 86.5316 759.332 81.0702 761.885 76.3889C764.437 71.7079 767.985 68.0905 772.453 65.5371C776.994 62.9837 782.099 61.6361 787.988 61.6361C793.874 61.6361 798.627 62.8419 803.024 65.2534C807.421 67.6649 810.755 71.1404 813.237 75.6799C815.722 80.219 816.926 85.4677 816.926 91.5674V95.9649H767.845C768.056 102.419 770.182 107.526 774.086 111.143C777.987 114.832 782.951 116.605 788.837 116.605C794.726 116.605 797.986 115.399 800.753 113.058C803.52 110.718 805.647 107.881 807.139 104.547L815.507 108.59C814.303 111.143 812.599 113.697 810.399 116.25C808.202 118.804 805.365 120.932 801.89 122.634C798.412 124.336 793.945 125.187 788.555 125.187V125.258ZM767.915 87.9502H807.065C806.713 82.347 804.798 78.0202 801.32 74.8994C797.845 71.7787 793.378 70.2185 787.988 70.2185C782.595 70.2185 777.987 71.7787 774.439 74.8994C770.893 78.0202 768.764 82.347 767.915 87.9502Z" fill="white"/>
<defs>
<filter id="filter0_d_115_84" x="390.695" y="82.406" width="397.117" height="151.424" filterUnits="userSpaceOnUse" color-interpolation-filters="sRGB">
<feFlood flood-opacity="0" result="BackgroundImageFix"/>
<feColorMatrix in="SourceAlpha" type="matrix" values="0 0 0 0 0 0 0 0 0 0 0 0 0 0 0 0 0 0 127 0" result="hardAlpha"/>
<feOffset dy="2.86647"/>
<feGaussianBlur stdDeviation="1.43323"/>
<feComposite in2="hardAlpha" operator="out"/>
<feColorMatrix type="matrix" values="0 0 0 0 0.0673828 0 0 0 0 0.0673828 0 0 0 0 0.0673828 0 0 0 0.95 0"/>
<feBlend mode="normal" in2="BackgroundImageFix" result="effect1_dropShadow_115_84"/>
<feBlend mode="normal" in="SourceGraphic" in2="effect1_dropShadow_115_84" result="shape"/>
</filter>
<filter id="filter1_d_115_84" x="506.117" y="63.401" width="27.3077" height="77.7348" filterUnits="userSpaceOnUse" color-interpolation-filters="sRGB">
<feFlood flood-opacity="0" result="BackgroundImageFix"/>
<feColorMatrix in="SourceAlpha" type="matrix" values="0 0 0 0 0 0 0 0 0 0 0 0 0 0 0 0 0 0 127 0" result="hardAlpha"/>
<feOffset dy="8.79412"/>
<feGaussianBlur stdDeviation="4.39706"/>
<feComposite in2="hardAlpha" operator="out"/>
<feColorMatrix type="matrix" values="0 0 0 0 0 0 0 0 0 0 0 0 0 0 0 0 0 0 0.79 0"/>
<feBlend mode="normal" in2="BackgroundImageFix" result="effect1_dropShadow_115_84"/>
<feBlend mode="normal" in="SourceGraphic" in2="effect1_dropShadow_115_84" result="shape"/>
</filter>
<filter id="filter2_d_115_84" x="523.848" y="63.401" width="76.1773" height="77.7348" filterUnits="userSpaceOnUse" color-interpolation-filters="sRGB">
<feFlood flood-opacity="0" result="BackgroundImageFix"/>
<feColorMatrix in="SourceAlpha" type="matrix" values="0 0 0 0 0 0 0 0 0 0 0 0 0 0 0 0 0 0 127 0" result="hardAlpha"/>
<feOffset dy="8.79412"/>
<feGaussianBlur stdDeviation="4.39706"/>
<feComposite in2="hardAlpha" operator="out"/>
<feColorMatrix type="matrix" values="0 0 0 0 0 0 0 0 0 0 0 0 0 0 0 0 0 0 0.79 0"/>
<feBlend mode="normal" in2="BackgroundImageFix" result="effect1_dropShadow_115_84"/>
<feBlend mode="normal" in="SourceGraphic" in2="effect1_dropShadow_115_84" result="shape"/>
</filter>
<filter id="filter3_d_115_84" x="584.918" y="61.6361" width="76.4593" height="81.2102" filterUnits="userSpaceOnUse" color-interpolation-filters="sRGB">
<feFlood flood-opacity="0" result="BackgroundImageFix"/>
<feColorMatrix in="SourceAlpha" type="matrix" values="0 0 0 0 0 0 0 0 0 0 0 0 0 0 0 0 0 0 127 0" result="hardAlpha"/>
<feOffset dy="8.79412"/>
<feGaussianBlur stdDeviation="4.39706"/>
<feComposite in2="hardAlpha" operator="out"/>
<feColorMatrix type="matrix" values="0 0 0 0 0 0 0 0 0 0 0 0 0 0 0 0 0 0 0.79 0"/>
<feBlend mode="normal" in2="BackgroundImageFix" result="effect1_dropShadow_115_84"/>
<feBlend mode="normal" in="SourceGraphic" in2="effect1_dropShadow_115_84" result="shape"/>
</filter>
<filter id="filter4_d_115_84" x="654.574" y="63.1261" width="49.5777" height="78.0187" filterUnits="userSpaceOnUse" color-interpolation-filters="sRGB">
<feFlood flood-opacity="0" result="BackgroundImageFix"/>
<feColorMatrix in="SourceAlpha" type="matrix" values="0 0 0 0 0 0 0 0 0 0 0 0 0 0 0 0 0 0 127 0" result="hardAlpha"/>
<feOffset dy="8.79412"/>
<feGaussianBlur stdDeviation="4.39706"/>
<feComposite in2="hardAlpha" operator="out"/>
<feColorMatrix type="matrix" values="0 0 0 0 0 0 0 0 0 0 0 0 0 0 0 0 0 0 0.79 0"/>
<feBlend mode="normal" in2="BackgroundImageFix" result="effect1_dropShadow_115_84"/>
<feBlend mode="normal" in="SourceGraphic" in2="effect1_dropShadow_115_84" result="shape"/>
</filter>
<filter id="filter5_d_115_84" x="689.61" y="61.7006" width="70.0062" height="81.1394" filterUnits="userSpaceOnUse" color-interpolation-filters="sRGB">
<feFlood flood-opacity="0" result="BackgroundImageFix"/>
<feColorMatrix in="SourceAlpha" type="matrix" values="0 0 0 0 0 0 0 0 0 0 0 0 0 0 0 0 0 0 127 0" result="hardAlpha"/>
<feOffset dy="8.79412"/>
<feGaussianBlur stdDeviation="4.39706"/>
<feComposite in2="hardAlpha" operator="out"/>
<feColorMatrix type="matrix" values="0 0 0 0 0 0 0 0 0 0 0 0 0 0 0 0 0 0 0.79 0"/>
<feBlend mode="normal" in2="BackgroundImageFix" result="effect1_dropShadow_115_84"/>
<feBlend mode="normal" in="SourceGraphic" in2="effect1_dropShadow_115_84" result="shape"/>
</filter>
<linearGradient id="paint0_linear_115_84" x1="-20.2646" y1="-33.4177" x2="272.448" y2="361.367" gradientUnits="userSpaceOnUse">
<stop stop-color="#1A7998"/>
<stop offset="1" stop-color="#09305E"/>
</linearGradient>
</defs>
</svg>
