<svg width="871" height="284" viewBox="0 0 871 284" fill="none" xmlns="http://www.w3.org/2000/svg">
<rect x="0.816406" width="204.971" height="204.971" rx="11.3873" fill="url(#paint0_linear_83_4)"/>
<path d="M154.733 55.8358C154.621 55.2639 154.472 54.7045 154.286 54.1576C154.236 54.0208 154.193 53.8841 154.136 53.7535C154.037 53.4863 153.919 53.2252 153.795 52.9704C153.733 52.8398 153.664 52.7156 153.596 52.585C153.465 52.3302 153.322 52.0815 153.167 51.8392C149.002 45.2506 138.498 43.7589 125.197 46.8666C115.438 48.7935 105.555 48.607 95.9213 46.2451C90.5137 44.8777 85.479 45.3128 81.3767 47.8611C77.2744 50.4717 74.726 54.8226 73.6694 60.2923C71.6182 70.0509 67.5781 79.0636 61.6111 87.0194C59.3797 89.8415 57.515 92.6259 56.0606 95.3111C55.8181 95.7587 55.5882 96.206 55.3644 96.6475C54.9542 97.4678 54.5812 98.2822 54.2642 99.084C54.0094 99.6806 53.7856 100.277 53.5867 100.862C53.4749 101.203 53.363 101.545 53.2635 101.881C53.1641 102.217 53.0708 102.552 52.9838 102.882C52.8968 103.217 52.8222 103.547 52.7539 103.87C52.6855 104.199 52.6233 104.516 52.5736 104.84C52.5425 105.032 52.5114 105.231 52.4866 105.424C52.2504 107.171 52.2815 108.83 52.586 110.372C52.6917 110.95 52.8409 111.509 53.0336 112.05C53.0833 112.186 53.133 112.317 53.1827 112.454C53.2884 112.715 53.4003 112.982 53.5246 113.237C53.593 113.367 53.6551 113.492 53.7235 113.622C53.854 113.877 53.997 114.126 54.1524 114.368C58.3168 120.957 68.8212 122.448 82.1226 119.341C91.8812 117.414 101.764 117.6 111.398 119.962C116.806 121.33 121.84 120.895 125.942 118.346C130.045 115.736 132.593 111.385 133.65 105.915C135.701 96.1564 139.741 87.1437 145.708 79.1879C147.94 76.3658 149.804 73.5813 151.259 70.8962C151.501 70.4486 151.731 70.0012 151.955 69.5598C152.365 68.733 152.732 67.9251 153.055 67.1233C153.31 66.5204 153.534 65.9299 153.733 65.3457C153.844 65.0038 153.956 64.6619 154.056 64.3263C154.155 63.9906 154.248 63.655 154.335 63.3256C154.422 62.9899 154.497 62.6605 154.566 62.3373C154.634 62.0079 154.696 61.6909 154.746 61.3677C154.777 61.175 154.808 60.9761 154.833 60.7834C155.069 59.0306 155.044 57.371 154.733 55.8358ZM83.4775 50.9814C87.524 48.7935 91.7319 48.9302 95.5233 49.3653C92.3535 50.1112 87.934 51.6092 85.0749 53.4117C82.2158 55.2142 78.3808 58.9871 76.3296 61.5355C77.5106 57.9304 80.5563 52.8461 83.4775 50.9814ZM86.9706 56.7992C91.6946 53.8157 96.6672 51.7646 101.578 50.5836C102.012 50.7701 102.82 51.8889 102.82 51.8889C97.9101 53.7535 92.9378 56.2398 88.0895 59.2854C83.2415 62.3311 78.8905 65.7497 75.0989 69.4169C75.0989 68.9196 75.0368 67.3658 75.0368 67.3658C78.2067 63.3877 82.2469 59.7827 86.9706 56.7992ZM58.6711 111.838C55.8119 107.363 57.0551 100.65 62.0275 92.6321C60.7223 98.4747 61.2817 104.007 64.0787 108.42C66.8757 112.895 71.5996 115.754 77.4422 117.059C68.1188 118.116 61.4681 116.313 58.6711 111.838ZM85.0314 116.295C78.2005 114.685 72.3827 111.067 68.7839 105.554C65.1291 100.041 64.2341 93.4401 65.6699 86.8951C66.3785 86.1617 67.1368 85.4282 67.895 84.6452C68.2618 90.6556 70.3005 96.7842 74.005 102.397C77.7157 108.028 82.6322 112.392 88.1454 115.319C87.0702 115.661 86.0509 116.009 85.0314 116.295ZM92.9378 113.809C86.8466 110.825 81.3767 106.039 77.3366 99.6994C73.2964 93.3593 71.3074 86.3357 71.2453 79.5609C71.9912 78.8646 72.7308 78.131 73.5264 77.4162C75.0927 84.1852 78.1135 90.8854 81.8678 96.7903C85.6592 102.757 90.5075 108.413 95.9771 112.764C94.6719 113.324 93.8513 113.591 92.9378 113.809ZM100.365 110.384C94.5849 105.971 89.7366 100.377 85.8831 94.2233C82.0294 88.0698 79.0458 81.2949 77.492 74.2091C82.3401 70.0447 85.9763 67.3161 91.3839 63.8974C96.7915 60.4788 100.452 58.0982 106.295 55.4877C106.37 55.5437 106.444 55.6058 106.519 55.6617C112.2 60.0437 116.974 65.5756 120.777 71.6483C124.631 77.8018 127.615 84.5767 129.168 91.6625C124.32 95.8269 121.156 98.9535 115.749 102.372C110.951 105.405 105.953 108.146 100.8 110.545L100.365 110.384ZM123.842 115.226C119.795 117.414 115.587 117.277 111.796 116.842C114.966 116.096 119.385 114.598 122.244 112.796C125.103 110.993 128.939 107.22 130.99 104.672C129.809 108.277 126.763 113.361 123.842 115.226ZM120.349 109.408C115.625 112.392 110.652 114.443 105.742 115.624C105.307 115.437 104.499 114.318 104.499 114.318C109.409 112.454 114.382 109.967 119.23 106.922C124.078 103.876 128.429 100.458 132.22 96.7903C132.22 97.2876 132.282 98.8415 132.282 98.8415C129.113 102.82 125.072 106.425 120.349 109.408ZM133.793 88.7908C132.227 82.0221 129.206 75.3216 125.452 69.4169C121.66 63.4499 116.812 57.7937 111.342 53.4428C112.647 52.8833 113.468 52.6161 114.382 52.3985C120.473 55.382 125.942 60.1681 129.983 66.508C134.023 72.848 136.012 79.8715 136.074 86.6464C135.328 87.3427 134.588 88.076 133.793 88.7908ZM141.649 79.3122C140.941 80.0455 140.183 80.7791 139.424 81.5621C139.43 81.5809 139.43 81.5932 139.43 81.6118H139.374C139.374 81.6118 139.406 81.5809 139.424 81.5621C139.058 75.5517 137.019 69.4231 133.32 63.8104C129.604 58.1791 124.687 53.8157 119.174 50.8882C120.249 50.5463 121.268 50.1982 122.288 49.9123C129.119 51.5221 134.937 55.1396 138.536 60.6529C142.19 66.1661 143.085 72.7672 141.649 79.3122ZM145.292 73.5751C146.597 67.7325 146.038 62.2005 143.241 57.7875C140.444 53.3122 135.72 50.4531 129.877 49.1478C139.2 48.0911 145.851 49.8937 148.648 54.3689C151.507 58.8441 150.264 65.557 145.292 73.5751Z" fill="white"/>
<path d="M42 159.799L42 44.4702C42 39.3724 44.0251 34.4833 47.6298 30.8786C51.2345 27.2739 56.1236 25.2488 61.2214 25.2488L157.329 25.2488C159.368 25.2488 161.323 26.0588 162.765 27.5007C164.207 28.9426 165.017 30.8982 165.017 32.9374V171.332C165.017 173.371 164.207 175.326 162.765 176.768C161.323 178.21 159.368 179.02 157.329 179.02H61.2214C56.1236 179.02 51.2345 176.995 47.6298 173.39C44.0251 169.786 42 164.897 42 159.799ZM42 159.799C42 154.701 44.0251 149.812 47.6298 146.207C51.2345 142.602 56.1236 140.577 61.2214 140.577H165.017" stroke="white" stroke-width="6.80456" stroke-linecap="round" stroke-linejoin="round"/>
<path d="M54.5 161.5H161.5" stroke="white" stroke-width="6" stroke-linecap="round"/>
<path d="M283.052 81.932C278.314 81.932 273.967 80.8286 270.008 78.5574C266.05 76.2864 262.87 73.0418 260.534 68.7589C258.198 64.476 257.03 59.4144 257.03 53.5743V52.0818C257.03 46.2416 258.198 41.18 260.534 36.9621C262.87 32.7443 265.985 29.4347 269.943 27.1635C273.902 24.8923 278.25 23.7242 283.052 23.7242C287.853 23.7242 290.125 24.2434 292.785 25.2167C295.446 26.255 297.587 27.4879 299.274 29.0453C300.897 30.6028 302.195 32.2251 303.103 33.9772H304.66V1.53137H313.551V80.3097H304.855V71.16H303.298C301.805 73.9501 299.469 76.4162 296.29 78.6224C293.11 80.7638 288.697 81.8669 282.987 81.8669L283.052 81.932ZM285.388 74.0799C291.098 74.0799 295.705 72.2631 299.274 68.6291C302.843 64.9952 304.595 59.9336 304.595 53.3797V52.3414C304.595 45.7872 302.779 40.7258 299.274 37.0919C295.705 33.458 291.098 31.6409 285.388 31.6409C279.677 31.6409 275.135 33.458 271.501 37.0919C267.867 40.7258 266.05 45.7872 266.05 52.3414V53.3797C266.05 59.9336 267.867 64.9952 271.501 68.6291C275.135 72.2631 279.807 74.0799 285.388 74.0799Z" fill="white"/>
<path d="M351.837 81.9299C346.257 81.9299 341.39 80.7617 337.172 78.361C332.954 76.0247 329.709 72.6503 327.373 68.4325C325.037 64.1496 323.869 59.218 323.869 53.5724V52.2097C323.869 46.4991 325.037 41.5025 327.373 37.2196C329.709 32.937 332.954 29.6274 337.042 27.2913C341.195 24.9552 345.867 23.7223 351.253 23.7223C356.639 23.7223 360.987 24.8254 365.01 27.0317C369.034 29.2381 372.084 32.4178 374.355 36.5709C376.626 40.7237 377.729 45.5258 377.729 51.1063V55.1297H332.824C333.084 61.0348 334.965 65.7071 338.599 69.0164C342.233 72.3907 346.711 74.013 352.097 74.013C357.483 74.013 360.468 72.9099 362.999 70.7685C365.529 68.627 367.476 66.0314 368.839 62.9817L376.496 66.6804C375.393 69.0164 373.836 71.3527 371.824 73.6887C369.812 76.0247 367.216 77.9716 364.037 79.5288C360.857 81.0863 356.769 81.8651 351.837 81.8651V81.9299ZM332.889 47.797H368.709C368.385 42.6706 366.698 38.7121 363.453 35.8569C360.273 33.0017 356.185 31.5743 351.253 31.5743C346.321 31.5743 342.104 33.0017 338.859 35.8569C335.614 38.7121 333.668 42.6706 332.889 47.797Z" fill="white"/>
<path d="M387.592 80.3783V25.3503H396.287V32.0989H397.845C398.818 29.6981 400.311 27.9459 402.322 26.7779C404.334 25.6098 406.994 25.0907 410.304 25.0907H416.858V33.2023H409.786C405.826 33.2023 402.582 34.3054 400.181 36.5116C397.715 38.7178 396.547 42.1572 396.547 46.8294V80.3783H387.592Z" fill="white"/>
<path d="M424.386 80.375V25.347H433.278V80.375H424.386Z" fill="white"/>
<path d="M424.386 13.5363V1.53137H433.278V13.5363H424.386Z" fill="white"/>
<path d="M460.335 80.375L440.608 25.347H450.084L466.632 73.7561H468.187L484.735 25.347H494.21L474.481 80.375H460.271H460.335Z" fill="white"/>
<path d="M524.381 81.9299C518.803 81.9299 513.933 80.7617 509.782 78.361C505.563 76.0247 502.319 72.6503 499.984 68.4325C497.646 64.1496 496.48 59.218 496.48 53.5724V52.2097C496.48 46.4991 497.646 41.5025 499.984 37.2196C502.319 32.937 505.563 29.6274 509.653 27.2913C513.804 24.9552 518.478 23.7223 523.863 23.7223C529.248 23.7223 533.596 24.8254 537.619 27.0317C541.644 29.2381 544.694 32.4178 546.965 36.5709C549.235 40.7237 550.34 45.5258 550.34 51.1063V55.1297H505.434C505.627 61.0348 507.575 65.7071 511.144 69.0164C514.777 72.3907 519.257 74.013 524.642 74.013C530.027 74.013 533.013 72.9099 535.544 70.7685C538.075 68.627 540.021 66.0314 541.383 62.9817L549.042 66.6804C547.938 69.0164 546.379 71.3527 544.369 73.6887C542.356 76.0247 539.76 77.9716 536.581 79.5288C533.402 81.0863 529.315 81.8651 524.381 81.8651V81.9299ZM505.434 47.797H541.254C540.929 42.6706 539.177 38.7121 535.998 35.8569C532.819 33.0017 528.729 31.5743 523.798 31.5743C518.867 31.5743 514.648 33.0017 511.405 35.8569C508.159 38.7121 506.213 42.6706 505.434 47.797Z" fill="white"/>
<path d="M560.202 80.3783V25.3503H568.898V32.0989H570.457C571.429 29.6981 572.921 27.9459 574.934 26.7779C576.943 25.6098 579.607 25.0907 582.915 25.0907H589.469V33.2023H582.396C578.438 33.2023 575.191 34.3054 572.792 36.5116C570.325 38.7178 569.159 42.1572 569.159 46.8294V80.3783H560.202Z" fill="white"/>
<path d="M618.022 81.9334C611.21 81.9334 605.433 80.3758 600.762 77.196C596.089 74.0165 593.235 69.0199 592.26 62.2062L600.698 60.3243C601.281 63.8935 602.45 66.7487 604.07 68.8251C605.693 70.9018 607.77 72.3292 610.235 73.2378C612.702 74.0813 615.297 74.5357 618.087 74.5357C622.241 74.5357 625.485 73.6919 627.887 72.0696C630.287 70.4474 631.52 68.2411 631.52 65.4507C631.52 62.6606 630.351 60.5839 628.08 59.416C625.81 58.2479 622.631 57.2746 618.673 56.5606L614.064 55.7821C610.56 55.1979 607.316 54.2246 604.395 52.9917C601.474 51.6938 599.139 50.0067 597.387 47.8003C595.635 45.6588 594.791 42.8687 594.791 39.5591C594.791 34.6275 596.672 30.734 600.502 27.9436C604.331 25.1532 609.391 23.7905 615.687 23.7905C621.98 23.7905 626.979 25.2181 630.805 28.0085C634.699 30.7987 637.166 34.7573 638.268 39.8837L629.961 42.0249C629.314 38.0666 627.691 35.2762 625.095 33.6539C622.564 32.0316 619.385 31.2532 615.623 31.2532C611.858 31.2532 608.937 31.9669 606.73 33.3296C604.524 34.6923 603.487 36.7687 603.487 39.4943C603.487 42.2197 604.524 44.0365 606.601 45.2697C608.679 46.5026 611.404 47.4109 614.908 47.9951L619.516 48.7738C623.407 49.4225 626.911 50.3961 630.029 51.4992C633.143 52.6671 635.607 54.3544 637.491 56.4958C639.308 58.702 640.216 61.5572 640.216 65.0614C640.216 70.4474 638.203 74.6005 634.18 77.5207C630.158 80.4409 624.773 81.9334 618.022 81.9334Z" fill="white"/>
<path d="M674.737 81.9299C669.156 81.9299 664.289 80.7617 660.135 78.361C655.919 76.0247 652.672 72.6503 650.337 68.4325C648.002 64.1496 646.833 59.218 646.833 53.5724V52.2097C646.833 46.4991 648.002 41.5025 650.337 37.2196C652.672 32.937 655.919 29.6274 660.006 27.2913C664.16 24.9552 668.831 23.7223 674.219 23.7223C679.604 23.7223 683.952 24.8254 687.974 27.0317C691.997 29.2381 695.047 32.4178 697.318 36.5709C699.591 40.7237 700.693 45.5258 700.693 51.1063V55.1297H655.79C655.983 61.0348 657.928 65.7071 661.5 69.0164C665.069 72.3907 669.61 74.013 674.995 74.013C680.383 74.013 683.366 72.9099 685.897 70.7685C688.429 68.627 690.374 66.0314 691.739 62.9817L699.395 66.6804C698.293 69.0164 696.735 71.3527 694.722 73.6887C692.712 76.0247 690.116 77.9716 686.937 79.5288C683.755 81.0863 679.668 81.8651 674.737 81.8651V81.9299ZM655.854 47.797H691.672C691.35 42.6706 689.597 38.7121 686.416 35.8569C683.237 33.0017 679.15 31.5743 674.219 31.5743C669.285 31.5743 665.069 33.0017 661.822 35.8569C658.579 38.7121 656.631 42.6706 655.854 47.797Z" fill="white"/>
<path d="M292.195 203.44C285.212 203.44 279.126 201.943 273.939 198.951C268.752 195.958 264.662 191.718 261.669 186.232C258.776 180.645 257.23 174.111 257.03 166.629L269.6 165.432C269.899 174.011 271.894 180.396 275.585 184.586C279.276 188.775 284.813 190.87 292.195 190.87C299.577 190.87 305.113 188.775 308.804 184.586C312.595 180.296 314.49 173.912 314.49 165.432V94.8044H327.359V165.432C327.359 177.204 324.217 186.481 317.932 193.264C311.647 200.048 303.068 203.44 292.195 203.44Z" fill="white"/>
<path d="M385.658 202.841C378.376 202.841 371.991 201.145 366.505 197.754C361.118 194.362 356.928 189.573 353.935 183.389C350.943 177.104 349.446 169.772 349.446 161.392C349.446 152.913 350.943 145.581 353.935 139.396C356.928 133.211 361.118 128.422 366.505 125.031C371.991 121.639 378.376 119.943 385.658 119.943C392.94 119.943 399.275 121.639 404.662 125.031C410.148 128.422 414.388 133.211 417.381 139.396C420.374 145.581 421.87 152.913 421.87 161.392C421.87 169.772 420.374 177.104 417.381 183.389C414.388 189.573 410.148 194.362 404.662 197.754C399.275 201.145 392.94 202.841 385.658 202.841ZM385.658 190.87C392.94 190.87 398.577 188.277 402.567 183.089C406.657 177.802 408.702 170.57 408.702 161.392C408.702 152.215 406.657 145.032 402.567 139.845C398.577 134.558 392.94 131.914 385.658 131.914C378.376 131.914 372.69 134.558 368.6 139.845C364.609 145.032 362.614 152.215 362.614 161.392C362.614 170.57 364.609 177.802 368.6 183.089C372.69 188.277 378.376 190.87 385.658 190.87Z" fill="white"/>
<path d="M469.844 202.841C461.964 202.841 455.679 200.198 450.99 194.91C446.302 189.524 443.957 182.142 443.957 172.764V121.739H456.527V169.323C456.527 177.004 457.874 182.69 460.567 186.381C463.36 189.972 467.6 191.768 473.286 191.768C479.471 191.768 484.359 189.773 487.95 185.783C491.541 181.693 493.337 176.106 493.337 169.024V121.739H505.906V201.045H493.936V181.443L495.881 182.491C494.285 188.975 491.242 194.013 486.753 197.604C482.264 201.095 476.628 202.841 469.844 202.841Z" fill="white"/>
<path d="M554.33 201.045V121.739H564.804L566.001 141.79L564.804 141.491C565.802 134.707 567.947 129.719 571.239 126.527C574.63 123.335 579.119 121.739 584.706 121.739H601.016V133.111H584.855C580.965 133.111 577.673 133.909 574.979 135.505C572.386 137.002 570.391 139.246 568.994 142.239C567.597 145.132 566.899 148.773 566.899 153.162V201.045H554.33ZM533.68 201.045V189.972H592.038V201.045H533.68ZM533.68 132.812V121.739H561.213V132.812H533.68Z" fill="white"/>
<path d="M622.505 201.045V121.739H634.027L634.476 141.94L632.979 140.593C633.977 135.904 635.773 132.064 638.366 129.071C641.06 125.978 644.252 123.684 647.943 122.188C651.634 120.691 655.525 119.943 659.615 119.943C665.7 119.943 670.737 121.29 674.728 123.983C678.818 126.677 681.91 130.318 684.005 134.907C686.1 139.396 687.147 144.433 687.147 150.02V201.045H674.578V153.611C674.578 146.229 673.132 140.643 670.239 136.852C667.346 132.961 662.907 131.016 656.921 131.016C652.831 131.016 649.14 131.914 645.848 133.71C642.556 135.405 639.913 137.949 637.917 141.341C636.022 144.633 635.074 148.723 635.074 153.611V201.045H622.505Z" fill="white"/>
<path d="M734.074 202.841C729.087 202.841 724.598 201.943 720.607 200.148C716.617 198.352 713.475 195.858 711.18 192.666C708.886 189.374 707.739 185.583 707.739 181.294C707.739 174.51 709.734 169.273 713.724 165.582C717.814 161.791 724.199 159.048 732.877 157.352L759.512 151.965C759.512 145.182 757.966 140.144 754.874 136.852C751.881 133.56 747.542 131.914 741.856 131.914C736.369 131.914 732.079 133.161 728.987 135.655C725.894 138.049 723.75 141.541 722.553 146.129L709.235 145.082C710.731 137.6 714.273 131.565 719.859 126.976C725.545 122.287 732.877 119.943 741.856 119.943C751.432 119.943 758.864 122.836 764.151 128.622C769.438 134.308 772.082 142.189 772.082 152.264V185.184C772.082 186.98 772.481 188.227 773.279 188.925C774.077 189.623 775.274 189.972 776.87 189.972H781.958V201.045C781.359 201.145 780.412 201.195 779.115 201.195C777.818 201.295 776.571 201.345 775.374 201.345C771.982 201.345 769.089 200.796 766.695 199.699C764.401 198.601 762.655 196.856 761.458 194.462C760.261 191.968 759.612 188.775 759.512 184.885H761.907C761.208 188.277 759.512 191.369 756.819 194.162C754.225 196.856 750.933 199 746.943 200.597C742.953 202.093 738.663 202.841 734.074 202.841ZM735.272 191.768C740.658 191.768 745.147 190.87 748.739 189.075C752.33 187.179 755.023 184.586 756.819 181.294C758.615 177.902 759.512 174.011 759.512 169.622V162.739L735.272 167.527C729.885 168.525 726.144 170.071 724.049 172.166C721.954 174.161 720.907 176.805 720.907 180.097C720.907 183.788 722.154 186.68 724.647 188.775C727.241 190.771 730.782 191.768 735.272 191.768Z" fill="white"/>
<path d="M830.231 201.045V116.053C830.231 112.86 829.334 110.367 827.538 108.571C825.742 106.775 823.248 105.877 820.056 105.877H801.352V94.8044H820.655C827.937 94.8044 833.424 96.6998 837.115 100.491C840.905 104.182 842.801 109.668 842.801 116.95V201.045H830.231ZM798.359 201.045V189.972H870.184V201.045H798.359Z" fill="white"/>
<path d="M11.9634 270.746V242.477H1.9284V240.427H24.1336V242.477H14.0985V270.746H11.9634ZM36.2871 270.746V248.113H37.9524L38.2087 254.732L37.7389 254.476C38.1944 252.369 38.9061 250.789 39.874 249.736C40.8704 248.654 42.2796 248.113 44.1016 248.113H48.3291V250.035H43.9308C42.792 250.035 41.7956 250.348 40.9416 250.974C40.116 251.572 39.4755 252.384 39.02 253.408C38.5645 254.433 38.3368 255.586 38.3368 256.867V270.746H36.2871ZM29.9671 270.746V268.909H45.767V270.746H29.9671ZM29.9671 249.95V248.113H37.3546V249.95H29.9671ZM61.3793 271.258C59.9274 271.258 58.6464 271.016 57.5361 270.532C56.4259 270.02 55.5576 269.308 54.9313 268.397C54.3334 267.458 54.0345 266.376 54.0345 265.152C54.0345 263.387 54.6466 261.977 55.8707 260.924C57.1233 259.871 58.8314 259.145 60.995 258.746L69.4073 257.081C69.4073 254.462 68.8949 252.569 67.8701 251.401C66.8452 250.206 65.3222 249.608 63.3009 249.608C61.422 249.608 59.9132 250.078 58.7745 251.017C57.6642 251.928 56.9525 253.252 56.6394 254.988L54.4188 254.818C54.8174 252.569 55.7711 250.804 57.2799 249.523C58.8172 248.242 60.8242 247.601 63.3009 247.601C65.8915 247.601 67.8985 248.384 69.3219 249.95C70.7453 251.487 71.4571 253.779 71.4571 256.825V266.347C71.4571 267.344 71.6136 268.013 71.9268 268.354C72.2399 268.667 72.6954 268.824 73.2933 268.824H74.617V270.746C74.5032 270.774 74.2754 270.788 73.9338 270.788C73.5922 270.817 73.2933 270.831 73.037 270.831C72.2684 270.831 71.5994 270.689 71.03 270.404C70.4891 270.091 70.0763 269.578 69.7917 268.867C69.507 268.127 69.3646 267.087 69.3646 265.749H69.8344C69.5212 266.717 68.9661 267.628 68.169 268.482C67.4003 269.336 66.4324 270.02 65.2652 270.532C64.098 271.016 62.8027 271.258 61.3793 271.258ZM61.4647 269.336C63.1159 269.336 64.5251 269.023 65.6922 268.397C66.8879 267.742 67.7989 266.86 68.4252 265.749C69.08 264.639 69.4073 263.372 69.4073 261.949V258.917L61.4647 260.497C59.7566 260.839 58.4471 261.365 57.5361 262.077C56.6251 262.789 56.1696 263.757 56.1696 264.981C56.1696 266.376 56.6251 267.458 57.5361 268.226C58.4756 268.966 59.7851 269.336 61.4647 269.336ZM88.6921 271.258C86.7278 271.258 85.0339 270.774 83.6105 269.806C82.1871 268.838 81.0911 267.472 80.3224 265.707C79.5538 263.942 79.1695 261.849 79.1695 259.43C79.1695 257.038 79.5538 254.96 80.3224 253.195C81.0911 251.43 82.1871 250.063 83.6105 249.096C85.0339 248.099 86.7278 247.601 88.6921 247.601C90.4856 247.601 92.0371 248.113 93.3466 249.138C94.6562 250.135 95.6099 251.373 96.2077 252.853V240.427H98.2574V270.746H96.5493L96.4212 265.792C95.7949 267.358 94.8128 268.667 93.4747 269.721C92.1367 270.746 90.5425 271.258 88.6921 271.258ZM88.7775 269.251C90.2578 269.251 91.5531 268.838 92.6634 268.013C93.8021 267.187 94.6704 266.048 95.2682 264.596C95.8945 263.116 96.2077 261.394 96.2077 259.43C96.2077 257.465 95.8945 255.757 95.2682 254.305C94.6704 252.825 93.8021 251.672 92.6634 250.846C91.5531 250.021 90.2436 249.608 88.7348 249.608C86.4573 249.608 84.6496 250.49 83.3116 252.256C82.0021 254.021 81.3473 256.412 81.3473 259.43C81.3473 262.447 82.0021 264.838 83.3116 266.603C84.6496 268.369 86.4716 269.251 88.7775 269.251ZM115.877 271.258C113.713 271.258 111.891 270.746 110.411 269.721C108.931 268.667 107.792 267.244 106.995 265.451C106.226 263.657 105.842 261.65 105.842 259.43C105.842 257.209 106.212 255.216 106.952 253.451C107.721 251.658 108.831 250.234 110.283 249.181C111.763 248.128 113.571 247.601 115.706 247.601C117.784 247.601 119.549 248.113 121.001 249.138C122.453 250.163 123.549 251.558 124.289 253.323C125.029 255.06 125.399 257.038 125.399 259.259V259.942H108.02C108.105 262.874 108.845 265.166 110.24 266.817C111.663 268.44 113.542 269.251 115.877 269.251C117.699 269.251 119.193 268.81 120.361 267.927C121.528 267.016 122.325 265.835 122.752 264.383L124.972 264.554C124.403 266.49 123.321 268.098 121.727 269.379C120.161 270.632 118.211 271.258 115.877 271.258ZM108.02 258.106H123.179C123.065 255.43 122.353 253.352 121.044 251.871C119.734 250.362 117.955 249.608 115.706 249.608C113.514 249.608 111.735 250.362 110.368 251.871C109.002 253.352 108.219 255.43 108.02 258.106ZM155.599 270.746L165.293 240.427H168.026L177.719 270.746H175.498L166.659 242.434L157.82 270.746H155.599ZM159.912 261.18L160.638 259.131H172.68L173.406 261.18H159.912ZM183.595 270.746V248.113H185.517L185.602 254.177L185.303 254.049C185.503 252.626 185.987 251.444 186.755 250.505C187.524 249.537 188.478 248.811 189.616 248.327C190.755 247.843 191.965 247.601 193.246 247.601C194.954 247.601 196.377 247.985 197.516 248.754C198.655 249.523 199.509 250.562 200.078 251.871C200.648 253.152 200.932 254.59 200.932 256.184V270.746H198.883V257.209C198.883 254.875 198.399 253.01 197.431 251.615C196.491 250.22 194.954 249.523 192.819 249.523C191.367 249.523 190.1 249.85 189.018 250.505C187.965 251.131 187.14 252.028 186.542 253.195C185.944 254.334 185.645 255.672 185.645 257.209V270.746H183.595ZM211.079 277.151V275.315H213.086C214.168 275.315 214.965 275.13 215.477 274.76C215.99 274.39 216.417 273.735 216.758 272.795L217.698 270.319H216.844L208.047 248.113H210.267L218.253 268.653L225.683 248.113H227.904L218.509 273.521C218.025 274.831 217.385 275.756 216.587 276.297C215.819 276.866 214.694 277.151 213.214 277.151H211.079ZM246.249 270.746C244.512 270.746 243.174 270.29 242.235 269.379C241.324 268.468 240.868 267.173 240.868 265.493V242.818H242.918V265.579C242.918 266.66 243.189 267.486 243.729 268.055C244.299 268.625 245.096 268.909 246.121 268.909H252.313V270.746H246.249ZM233.097 249.95V248.113H252.313V249.95H233.097ZM261.093 270.746V240.427H263.142V253.921L262.886 253.878C263.057 252.483 263.498 251.316 264.21 250.377C264.95 249.437 265.875 248.74 266.985 248.284C268.096 247.829 269.306 247.601 270.615 247.601C272.295 247.601 273.675 247.985 274.757 248.754C275.868 249.494 276.693 250.519 277.234 251.828C277.803 253.11 278.088 254.561 278.088 256.184V270.746H276.038V257.209C276.038 254.846 275.569 252.981 274.629 251.615C273.718 250.22 272.209 249.523 270.103 249.523C267.939 249.523 266.231 250.22 264.978 251.615C263.754 253.01 263.142 254.875 263.142 257.209V270.746H261.093ZM295.152 270.746V248.113H297.202V270.746H295.152ZM285.843 270.746V268.909H305.23V270.746H285.843ZM286.27 249.95V248.113H297.202V249.95H286.27ZM294.981 244.142V240.769H297.202V244.142H294.981ZM311.619 270.746V248.113H313.54L313.626 254.177L313.327 254.049C313.526 252.626 314.01 251.444 314.779 250.505C315.547 249.537 316.501 248.811 317.64 248.327C318.778 247.843 319.988 247.601 321.269 247.601C322.977 247.601 324.401 247.985 325.54 248.754C326.678 249.523 327.532 250.562 328.102 251.871C328.671 253.152 328.956 254.59 328.956 256.184V270.746H326.906V257.209C326.906 254.875 326.422 253.01 325.454 251.615C324.515 250.22 322.977 249.523 320.842 249.523C319.391 249.523 318.124 249.85 317.042 250.505C315.989 251.131 315.163 252.028 314.565 253.195C313.967 254.334 313.668 255.672 313.668 257.209V270.746H311.619ZM345.636 277.663C344.042 277.663 342.604 277.379 341.323 276.809C340.07 276.24 339.045 275.457 338.248 274.461C337.48 273.464 337.024 272.326 336.882 271.045L339.06 270.874C339.23 272.326 339.871 273.479 340.981 274.333C342.12 275.215 343.671 275.656 345.636 275.656C347.942 275.656 349.735 275.044 351.016 273.82C352.297 272.625 352.938 270.902 352.938 268.653V264.511C352.312 266.048 351.344 267.287 350.034 268.226C348.753 269.166 347.23 269.635 345.465 269.635C343.558 269.635 341.878 269.18 340.426 268.269C339.003 267.358 337.892 266.077 337.095 264.426C336.327 262.746 335.942 260.796 335.942 258.575C335.942 256.383 336.327 254.476 337.095 252.853C337.892 251.202 339.003 249.921 340.426 249.01C341.849 248.071 343.501 247.601 345.38 247.601C347.23 247.601 348.824 248.113 350.162 249.138C351.5 250.135 352.454 251.401 353.023 252.939V248.113H354.988V268.653C354.988 270.532 354.603 272.141 353.835 273.479C353.094 274.845 352.027 275.884 350.632 276.596C349.237 277.308 347.572 277.663 345.636 277.663ZM345.508 267.628C347.757 267.628 349.55 266.817 350.888 265.194C352.255 263.572 352.938 261.365 352.938 258.575C352.966 256.81 352.667 255.259 352.041 253.921C351.443 252.554 350.575 251.501 349.436 250.761C348.326 249.992 347.016 249.608 345.508 249.608C343.23 249.608 341.422 250.419 340.084 252.042C338.746 253.636 338.077 255.814 338.077 258.575C338.077 261.365 338.746 263.572 340.084 265.194C341.451 266.817 343.259 267.628 345.508 267.628ZM369.49 270.746V266.732H373.504V270.746H369.49ZM421.638 270.746V242.477H411.603V240.427H433.809V242.477H423.774V270.746H421.638ZM445.962 270.746V248.113H447.627L447.884 254.732L447.414 254.476C447.869 252.369 448.581 250.789 449.549 249.736C450.545 248.654 451.955 248.113 453.777 248.113H458.004V250.035H453.606C452.467 250.035 451.471 250.348 450.617 250.974C449.791 251.572 449.15 252.384 448.695 253.408C448.24 254.433 448.012 255.586 448.012 256.867V270.746H445.962ZM439.642 270.746V268.909H455.442V270.746H439.642ZM439.642 249.95V248.113H447.03V249.95H439.642ZM472.634 271.258C470.385 271.258 468.592 270.504 467.254 268.995C465.916 267.458 465.247 265.351 465.247 262.675V248.113H467.297V261.992C467.297 264.44 467.795 266.276 468.791 267.5C469.816 268.724 471.282 269.336 473.189 269.336C475.296 269.336 476.961 268.653 478.186 267.287C479.438 265.892 480.065 264.013 480.065 261.65V248.113H482.114V270.746H480.235L480.15 264.767L480.492 264.853C480.178 266.874 479.324 268.454 477.929 269.593C476.563 270.703 474.798 271.258 472.634 271.258ZM499.99 271.258C498.025 271.258 496.346 270.945 494.951 270.319C493.556 269.664 492.474 268.781 491.706 267.671C490.937 266.561 490.51 265.322 490.424 263.956L492.56 263.742C492.673 265.422 493.371 266.76 494.652 267.756C495.962 268.753 497.741 269.251 499.99 269.251C502.125 269.251 503.733 268.909 504.815 268.226C505.925 267.543 506.481 266.518 506.481 265.152C506.481 264.383 506.31 263.728 505.968 263.187C505.655 262.618 504.972 262.134 503.918 261.735C502.894 261.308 501.342 260.924 499.264 260.582C497.072 260.212 495.392 259.757 494.225 259.216C493.058 258.647 492.246 257.963 491.791 257.166C491.335 256.341 491.108 255.359 491.108 254.22C491.108 252.91 491.435 251.757 492.09 250.761C492.745 249.765 493.684 248.996 494.908 248.455C496.132 247.886 497.584 247.601 499.264 247.601C501.029 247.601 502.523 247.914 503.748 248.54C504.972 249.167 505.94 250.007 506.651 251.06C507.363 252.085 507.833 253.223 508.061 254.476L505.925 254.732C505.783 253.821 505.441 252.981 504.901 252.213C504.36 251.416 503.619 250.789 502.68 250.334C501.741 249.85 500.602 249.608 499.264 249.608C497.356 249.608 495.876 250.021 494.823 250.846C493.769 251.643 493.243 252.768 493.243 254.22C493.243 255.131 493.428 255.871 493.798 256.44C494.197 257.01 494.88 257.479 495.848 257.85C496.816 258.191 498.168 258.49 499.904 258.746C502.182 259.088 503.947 259.543 505.199 260.113C506.452 260.654 507.335 261.337 507.847 262.162C508.359 262.96 508.616 263.927 508.616 265.066C508.616 266.404 508.26 267.529 507.548 268.44C506.865 269.351 505.883 270.048 504.602 270.532C503.321 271.016 501.783 271.258 499.99 271.258ZM527.9 270.746C526.164 270.746 524.826 270.29 523.886 269.379C522.975 268.468 522.52 267.173 522.52 265.493V242.818H524.57V265.579C524.57 266.66 524.84 267.486 525.381 268.055C525.95 268.625 526.747 268.909 527.772 268.909H533.964V270.746H527.9ZM514.748 249.95V248.113H533.964V249.95H514.748ZM575.267 270.746V258.362L565.53 240.427H568.007L576.334 256.141L584.661 240.427H587.138L577.402 258.362V270.746H575.267ZM601.939 271.258C599.946 271.258 598.21 270.774 596.729 269.806C595.277 268.838 594.153 267.472 593.356 265.707C592.559 263.942 592.16 261.849 592.16 259.43C592.16 257.01 592.559 254.917 593.356 253.152C594.153 251.387 595.277 250.021 596.729 249.053C598.21 248.085 599.946 247.601 601.939 247.601C603.932 247.601 605.654 248.085 607.106 249.053C608.586 250.021 609.725 251.387 610.522 253.152C611.319 254.917 611.718 257.01 611.718 259.43C611.718 261.849 611.319 263.942 610.522 265.707C609.725 267.472 608.586 268.838 607.106 269.806C605.654 270.774 603.932 271.258 601.939 271.258ZM601.939 269.251C604.33 269.251 606.195 268.383 607.533 266.646C608.871 264.881 609.54 262.476 609.54 259.43C609.54 256.383 608.871 253.992 607.533 252.256C606.195 250.49 604.33 249.608 601.939 249.608C599.548 249.608 597.683 250.49 596.345 252.256C595.007 253.992 594.338 256.383 594.338 259.43C594.338 262.476 595.007 264.881 596.345 266.646C597.683 268.383 599.548 269.251 601.939 269.251ZM626.262 271.258C624.013 271.258 622.22 270.504 620.882 268.995C619.544 267.458 618.875 265.351 618.875 262.675V248.113H620.925V261.992C620.925 264.44 621.423 266.276 622.419 267.5C623.444 268.724 624.91 269.336 626.818 269.336C628.924 269.336 630.59 268.653 631.814 267.287C633.066 265.892 633.693 264.013 633.693 261.65V248.113H635.742V270.746H633.863L633.778 264.767L634.12 264.853C633.806 266.874 632.952 268.454 631.557 269.593C630.191 270.703 628.426 271.258 626.262 271.258ZM650.8 270.746V248.113H652.465L652.721 254.732L652.251 254.476C652.707 252.369 653.419 250.789 654.387 249.736C655.383 248.654 656.792 248.113 658.614 248.113H662.842V250.035H658.443C657.305 250.035 656.308 250.348 655.454 250.974C654.629 251.572 653.988 252.384 653.533 253.408C653.077 254.433 652.849 255.586 652.849 256.867V270.746H650.8ZM644.48 270.746V268.909H660.279V270.746H644.48ZM644.48 249.95V248.113H651.867V249.95H644.48ZM703.205 271.429C701.297 271.429 699.632 271.002 698.208 270.148C696.785 269.265 695.661 268.041 694.835 266.475C694.038 264.881 693.611 263.016 693.554 260.881L695.689 260.625C695.774 263.444 696.458 265.607 697.739 267.116C699.02 268.596 700.842 269.336 703.205 269.336C705.738 269.336 707.646 268.554 708.927 266.988C710.236 265.422 710.891 263.13 710.891 260.113V240.427H713.026V260.113C713.026 263.671 712.158 266.447 710.421 268.44C708.713 270.432 706.308 271.429 703.205 271.429ZM729.962 271.258C727.97 271.258 726.233 270.774 724.753 269.806C723.301 268.838 722.176 267.472 721.379 265.707C720.582 263.942 720.183 261.849 720.183 259.43C720.183 257.01 720.582 254.917 721.379 253.152C722.176 251.387 723.301 250.021 724.753 249.053C726.233 248.085 727.97 247.601 729.962 247.601C731.955 247.601 733.677 248.085 735.129 249.053C736.61 250.021 737.748 251.387 738.545 253.152C739.343 254.917 739.741 257.01 739.741 259.43C739.741 261.849 739.343 263.942 738.545 265.707C737.748 267.472 736.61 268.838 735.129 269.806C733.677 270.774 731.955 271.258 729.962 271.258ZM729.962 269.251C732.354 269.251 734.218 268.383 735.556 266.646C736.894 264.881 737.563 262.476 737.563 259.43C737.563 256.383 736.894 253.992 735.556 252.256C734.218 250.49 732.354 249.608 729.962 249.608C727.571 249.608 725.706 250.49 724.368 252.256C723.03 253.992 722.361 256.383 722.361 259.43C722.361 262.476 723.03 264.881 724.368 266.646C725.706 268.383 727.571 269.251 729.962 269.251ZM754.286 271.258C752.037 271.258 750.243 270.504 748.905 268.995C747.567 267.458 746.898 265.351 746.898 262.675V248.113H748.948V261.992C748.948 264.44 749.446 266.276 750.443 267.5C751.467 268.724 752.934 269.336 754.841 269.336C756.948 269.336 758.613 268.653 759.837 267.287C761.09 265.892 761.716 264.013 761.716 261.65V248.113H763.766V270.746H761.887L761.801 264.767L762.143 264.853C761.83 266.874 760.976 268.454 759.581 269.593C758.214 270.703 756.449 271.258 754.286 271.258ZM778.823 270.746V248.113H780.488L780.745 254.732L780.275 254.476C780.73 252.369 781.442 250.789 782.41 249.736C783.406 248.654 784.816 248.113 786.638 248.113H790.865V250.035H786.467C785.328 250.035 784.332 250.348 783.478 250.974C782.652 251.572 782.011 252.384 781.556 253.408C781.1 254.433 780.873 255.586 780.873 256.867V270.746H778.823ZM772.503 270.746V268.909H788.303V270.746H772.503ZM772.503 249.95V248.113H779.891V249.95H772.503ZM798.108 270.746V248.113H800.029L800.115 254.177L799.816 254.049C800.015 252.626 800.499 251.444 801.268 250.505C802.036 249.537 802.99 248.811 804.129 248.327C805.268 247.843 806.477 247.601 807.759 247.601C809.467 247.601 810.89 247.985 812.029 248.754C813.167 249.523 814.022 250.562 814.591 251.871C815.16 253.152 815.445 254.59 815.445 256.184V270.746H813.395V257.209C813.395 254.875 812.911 253.01 811.943 251.615C811.004 250.22 809.467 249.523 807.332 249.523C805.88 249.523 804.613 249.85 803.531 250.505C802.478 251.131 801.652 252.028 801.054 253.195C800.456 254.334 800.158 255.672 800.158 257.209V270.746H798.108ZM829.52 271.258C828.068 271.258 826.787 271.016 825.677 270.532C824.566 270.02 823.698 269.308 823.072 268.397C822.474 267.458 822.175 266.376 822.175 265.152C822.175 263.387 822.787 261.977 824.011 260.924C825.264 259.871 826.972 259.145 829.136 258.746L837.548 257.081C837.548 254.462 837.036 252.569 836.011 251.401C834.986 250.206 833.463 249.608 831.442 249.608C829.563 249.608 828.054 250.078 826.915 251.017C825.805 251.928 825.093 253.252 824.78 254.988L822.559 254.818C822.958 252.569 823.912 250.804 825.421 249.523C826.958 248.242 828.965 247.601 831.442 247.601C834.032 247.601 836.039 248.384 837.463 249.95C838.886 251.487 839.598 253.779 839.598 256.825V266.347C839.598 267.344 839.754 268.013 840.067 268.354C840.381 268.667 840.836 268.824 841.434 268.824H842.758V270.746C842.644 270.774 842.416 270.788 842.074 270.788C841.733 270.817 841.434 270.831 841.178 270.831C840.409 270.831 839.74 270.689 839.171 270.404C838.63 270.091 838.217 269.578 837.932 268.867C837.648 268.127 837.505 267.087 837.505 265.749H837.975C837.662 266.717 837.107 267.628 836.31 268.482C835.541 269.336 834.573 270.02 833.406 270.532C832.239 271.016 830.943 271.258 829.52 271.258ZM829.605 269.336C831.257 269.336 832.666 269.023 833.833 268.397C835.029 267.742 835.94 266.86 836.566 265.749C837.221 264.639 837.548 263.372 837.548 261.949V258.917L829.605 260.497C827.897 260.839 826.588 261.365 825.677 262.077C824.766 262.789 824.31 263.757 824.31 264.981C824.31 266.376 824.766 267.458 825.677 268.226C826.616 268.966 827.926 269.336 829.605 269.336ZM857.601 270.746V245.466C857.601 244.441 857.317 243.658 856.747 243.117C856.206 242.548 855.424 242.263 854.399 242.263H849.146V240.427H854.399C856.078 240.427 857.374 240.882 858.285 241.793C859.196 242.704 859.651 244 859.651 245.679V270.746H857.601ZM848.292 270.746V268.909H867.679V270.746H848.292Z" fill="white"/>
<defs>
<linearGradient id="paint0_linear_83_4" x1="11.3252" y1="8.54046" x2="193.522" y2="199.277" gradientUnits="userSpaceOnUse">
<stop stop-color="#5657D0"/>
<stop offset="1" stop-color="#478A96"/>
</linearGradient>
</defs>
</svg>
